<?xml version="1.0" standalone="no"?>
<!DOCTYPE svg PUBLIC "-//W3C//DTD SVG 1.1//EN" "http://www.w3.org/Graphics/SVG/1.1/DTD/svg11.dtd" >
<svg xmlns="http://www.w3.org/2000/svg">
<metadata>
<json>
<![CDATA[
{
	"fontFamily": "hicons",
	"majorVersion": 1,
	"minorVersion": 0,
	"designer": "Cosimo Scarpa",
	"fontURL": "https://hicons.cosm.ws",
	"designerURL": "https://cosm.ws",
	"description": "Web Friendly Icons Set\nFont generated by IcoMoon.",
	"version": "Version 1.0",
	"fontId": "hicons",
	"psName": "hicons",
	"subFamily": "Regular",
	"fullName": "hicons"
}
]]>
</json>
</metadata>
<defs>
<font id="hicons" horiz-adv-x="1024">
<font-face units-per-em="1024" ascent="960" descent="-64" />
<missing-glyph horiz-adv-x="1024" />
<glyph unicode="&#x20;" horiz-adv-x="512" d="" />
<glyph unicode="&#xe900;" glyph-name="airplay" data-tags="airplay" d="M85.333 673.524c0 69.894 63.715 115.81 128 115.81h597.333c64.286 0 128-45.916 128-115.81v-365.713c0-69.892-63.714-115.81-128-115.81-23.565 0-42.667 19.102-42.667 42.667s19.102 42.667 42.667 42.667c29.973 0 42.667 19.58 42.667 30.477v365.713c0 10.898-12.693 30.476-42.667 30.476h-597.333c-29.972 0-42.667-19.578-42.667-30.476v-365.713c0-10.897 12.695-30.477 42.667-30.477 23.564 0 42.667-19.102 42.667-42.667s-19.103-42.667-42.667-42.667c-64.285 0-128 45.918-128 115.81v365.713zM512 362.667c12.378 0 24.149-5.376 32.252-14.733l221.705-256c10.931-12.629 13.495-30.473 6.554-45.662-6.938-15.194-22.106-24.939-38.805-24.939h-443.407c-16.702 0-31.868 9.745-38.809 24.939-6.94 15.189-4.378 33.033 6.556 45.662l221.704 256c8.102 9.357 19.874 14.733 32.252 14.733zM383.691 106.667h256.621l-128.311 148.16-128.309-148.16z" />
<glyph unicode="&#xe901;" glyph-name="alert-circle" data-tags="alert-circle" d="M512 789.333c-188.513 0-341.333-152.82-341.333-341.333s152.82-341.333 341.333-341.333c188.514 0 341.333 152.819 341.333 341.333s-152.819 341.333-341.333 341.333zM85.333 448c0 235.642 191.025 426.667 426.667 426.667 235.639 0 426.667-191.025 426.667-426.667 0-235.639-191.027-426.667-426.667-426.667-235.642 0-426.667 191.027-426.667 426.667zM512 704c23.565 0 42.667-19.103 42.667-42.667v-256c0-23.565-19.102-42.667-42.667-42.667s-42.667 19.102-42.667 42.667v256c0 23.564 19.102 42.667 42.667 42.667zM512 277.333c23.565 0 42.667-19.102 42.667-42.667v-0.427c0-23.565-19.102-42.667-42.667-42.667s-42.667 19.102-42.667 42.667v0.427c0 23.565 19.102 42.667 42.667 42.667z" />
<glyph unicode="&#xe902;" glyph-name="alert-square" data-tags="alert-square" d="M512 704c23.565 0 42.667-19.103 42.667-42.667v-256c0-23.565-19.102-42.667-42.667-42.667s-42.667 19.102-42.667 42.667v256c0 23.564 19.102 42.667 42.667 42.667zM512 277.333c23.565 0 42.667-19.102 42.667-42.667v-0.427c0-23.565-19.102-42.667-42.667-42.667s-42.667 19.102-42.667 42.667v0.427c0 23.565 19.102 42.667 42.667 42.667zM85.333 832c0 23.564 19.103 42.667 42.667 42.667h768c23.565 0 42.667-19.103 42.667-42.667v-768c0-23.565-19.102-42.667-42.667-42.667h-768c-23.564 0-42.667 19.102-42.667 42.667v768zM170.667 789.333v-682.667h682.667v682.667h-682.667z" />
<glyph unicode="&#xe903;" glyph-name="alert-triangle" data-tags="alert-triangle" d="M512 661.333c23.565 0 42.667-19.103 42.667-42.667v-256c0-23.565-19.102-42.667-42.667-42.667s-42.667 19.102-42.667 42.667v256c0 23.564 19.102 42.667 42.667 42.667zM512 234.667c23.565 0 42.667-19.102 42.667-42.667v-0.427c0-23.565-19.102-42.667-42.667-42.667s-42.667 19.102-42.667 42.667v0.427c0 23.565 19.102 42.667 42.667 42.667zM399.629 843.090c48.516 88.943 176.226 88.943 224.742 0l368.252-675.128c46.524-85.295-15.211-189.295-112.371-189.295h-736.504c-97.16 0-158.896 104-112.371 189.295l368.253 675.128zM549.457 802.228c-16.171 29.647-58.743 29.647-74.914 0l-368.253-675.128c-15.508-28.433 5.071-63.1 37.457-63.1h736.504c32.388 0 52.966 34.667 37.457 63.1l-368.252 675.128z" />
<glyph unicode="&#xe904;" glyph-name="align-center" data-tags="align-center" d="M938.667 704c0-23.564-19.102-42.667-42.667-42.667h-768c-23.564 0-42.667 19.103-42.667 42.667s19.103 42.667 42.667 42.667h768c23.565 0 42.667-19.103 42.667-42.667zM853.333 533.333c0-23.565-19.102-42.667-42.667-42.667h-597.333c-23.564 0-42.667 19.102-42.667 42.667s19.102 42.667 42.667 42.667h597.333c23.565 0 42.667-19.103 42.667-42.667zM938.667 362.667c0-23.565-19.102-42.667-42.667-42.667h-768c-23.564 0-42.667 19.102-42.667 42.667s19.103 42.667 42.667 42.667h768c23.565 0 42.667-19.102 42.667-42.667zM853.333 192c0-23.565-19.102-42.667-42.667-42.667h-597.333c-23.564 0-42.667 19.102-42.667 42.667s19.102 42.667 42.667 42.667h597.333c23.565 0 42.667-19.102 42.667-42.667z" />
<glyph unicode="&#xe905;" glyph-name="align-justify" data-tags="align-justify" d="M938.667 704c0-23.564-19.102-42.667-42.667-42.667h-768c-23.564 0-42.667 19.103-42.667 42.667s19.103 42.667 42.667 42.667h768c23.565 0 42.667-19.103 42.667-42.667zM938.667 533.333c0-23.565-19.102-42.667-42.667-42.667h-768c-23.564 0-42.667 19.102-42.667 42.667s19.103 42.667 42.667 42.667h768c23.565 0 42.667-19.103 42.667-42.667zM938.667 362.667c0-23.565-19.102-42.667-42.667-42.667h-768c-23.564 0-42.667 19.102-42.667 42.667s19.103 42.667 42.667 42.667h768c23.565 0 42.667-19.102 42.667-42.667zM938.667 192c0-23.565-19.102-42.667-42.667-42.667h-768c-23.564 0-42.667 19.102-42.667 42.667s19.103 42.667 42.667 42.667h768c23.565 0 42.667-19.102 42.667-42.667z" />
<glyph unicode="&#xe906;" glyph-name="align-left" data-tags="align-left" d="M938.667 704c0-23.564-19.102-42.667-42.667-42.667h-768c-23.564 0-42.667 19.103-42.667 42.667s19.103 42.667 42.667 42.667h768c23.565 0 42.667-19.103 42.667-42.667zM768 533.333c0-23.565-19.102-42.667-42.667-42.667h-597.333c-23.564 0-42.667 19.102-42.667 42.667s19.102 42.667 42.667 42.667h597.333c23.565 0 42.667-19.103 42.667-42.667zM938.667 362.667c0-23.565-19.102-42.667-42.667-42.667h-768c-23.564 0-42.667 19.102-42.667 42.667s19.103 42.667 42.667 42.667h768c23.565 0 42.667-19.102 42.667-42.667zM768 192c0-23.565-19.102-42.667-42.667-42.667h-597.333c-23.564 0-42.667 19.102-42.667 42.667s19.102 42.667 42.667 42.667h597.333c23.565 0 42.667-19.102 42.667-42.667z" />
<glyph unicode="&#xe907;" glyph-name="align-right" data-tags="align-right" d="M938.667 704c0-23.564-19.102-42.667-42.667-42.667h-768c-23.564 0-42.667 19.103-42.667 42.667s19.103 42.667 42.667 42.667h768c23.565 0 42.667-19.103 42.667-42.667zM938.667 533.333c0-23.565-19.102-42.667-42.667-42.667h-597.333c-23.564 0-42.667 19.102-42.667 42.667s19.102 42.667 42.667 42.667h597.333c23.565 0 42.667-19.103 42.667-42.667zM938.667 362.667c0-23.565-19.102-42.667-42.667-42.667h-768c-23.564 0-42.667 19.102-42.667 42.667s19.103 42.667 42.667 42.667h768c23.565 0 42.667-19.102 42.667-42.667zM938.667 192c0-23.565-19.102-42.667-42.667-42.667h-597.333c-23.564 0-42.667 19.102-42.667 42.667s19.102 42.667 42.667 42.667h597.333c23.565 0 42.667-19.102 42.667-42.667z" />
<glyph unicode="&#xe908;" glyph-name="anchor" data-tags="anchor" d="M512 789.333c-23.565 0-42.667-19.103-42.667-42.667s19.102-42.667 42.667-42.667c23.565 0 42.667 19.103 42.667 42.667s-19.102 42.667-42.667 42.667zM384 746.667c0 70.692 57.306 128 128 128s128-57.308 128-128c0-55.732-35.618-103.145-85.333-120.716v-516.643c154.398 19.251 276.774 141.628 296.026 296.026h-82.692c-23.565 0-42.667 19.102-42.667 42.667s19.102 42.667 42.667 42.667h128c23.565 0 42.667-19.102 42.667-42.667 0-235.639-191.027-426.667-426.667-426.667-235.642 0-426.667 191.027-426.667 426.667 0 23.565 19.103 42.667 42.667 42.667h128c23.564 0 42.667-19.102 42.667-42.667s-19.103-42.667-42.667-42.667h-82.693c19.253-154.398 141.627-276.774 296.026-296.026v516.643c-49.715 17.571-85.333 64.984-85.333 120.716z" />
<glyph unicode="&#xe909;" glyph-name="archive" data-tags="archive" d="M42.667 704c0 47.128 38.205 85.333 85.333 85.333h768c47.13 0 85.333-38.205 85.333-85.333v-170.667c0-23.565-19.102-42.667-42.667-42.667h-42.667v-426.667c0-23.565-19.102-42.667-42.667-42.667h-682.667c-23.564 0-42.667 19.102-42.667 42.667v426.667h-42.667c-23.564 0-42.667 19.102-42.667 42.667v170.667zM213.333 490.667v-384h597.333v384h-597.333zM896 576v128h-768v-128h768zM426.667 405.333c0 23.565 19.102 42.667 42.667 42.667h85.333c23.565 0 42.667-19.102 42.667-42.667s-19.102-42.667-42.667-42.667h-85.333c-23.565 0-42.667 19.102-42.667 42.667z" />
<glyph unicode="&#xe90a;" glyph-name="arrow-down-1" data-tags="arrow-down-1" d="M800 458.667c0-23.561-19.102-42.667-42.667-42.667h-378.238l48.348-58.018c15.087-18.099 12.642-45.005-5.462-60.092-18.102-15.083-45.007-12.638-60.092 5.466l-106.667 128c-13.186 15.821-13.186 38.805 0 54.626l106.667 128.001c15.085 18.103 41.99 20.548 60.092 5.463 18.104-15.085 20.549-41.99 5.462-60.092l-48.348-58.021h378.238c23.565 0 42.667-19.102 42.667-42.667z" />
<glyph unicode="&#xe90b;" glyph-name="arrow-down-cricle" data-tags="arrow-down-cricle" d="M85.333 448c0 235.642 191.025 426.667 426.667 426.667 235.639 0 426.667-191.025 426.667-426.667 0-235.639-191.027-426.667-426.667-426.667-235.642 0-426.667 191.027-426.667 426.667zM512 789.333c-188.513 0-341.333-152.82-341.333-341.333s152.82-341.333 341.333-341.333c188.514 0 341.333 152.819 341.333 341.333s-152.819 341.333-341.333 341.333zM512 661.333c23.565 0 42.667-19.103 42.667-42.667v-250.24l58.018 48.35c18.103 15.087 45.009 12.642 60.092-5.461 15.087-18.103 12.642-45.009-5.461-60.092l-128-106.667c-15.825-13.188-38.805-13.188-54.63 0l-128 106.667c-18.103 15.083-20.548 41.988-5.463 60.092s41.99 20.548 60.092 5.461l58.019-48.35v250.24c0 23.564 19.102 42.667 42.667 42.667z" />
<glyph unicode="&#xe90c;" glyph-name="arrow-down-left-circle" data-tags="arrow-down-left-circle" d="M85.333 448c0 235.642 191.025 426.667 426.667 426.667 235.639 0 426.667-191.025 426.667-426.667 0-235.639-191.027-426.667-426.667-426.667-235.642 0-426.667 191.027-426.667 426.667zM512 789.333c-188.513 0-341.333-152.82-341.333-341.333s152.82-341.333 341.333-341.333c188.514 0 341.333 152.819 341.333 341.333s-152.819 341.333-341.333 341.333zM675.345 600.997c16.661-16.662 16.661-43.677 0-60.34l-176.943-176.945 75.213-6.839c23.467-2.133 40.759-22.886 38.626-46.353s-22.886-40.759-46.353-38.626l-165.934 15.083c-20.512 1.865-36.764 18.116-38.629 38.63l-15.085 165.935c-2.133 23.467 15.161 44.219 38.628 46.352s44.221-15.163 46.355-38.63l6.835-75.213 176.947 176.945c16.661 16.663 43.678 16.663 60.339 0z" />
<glyph unicode="&#xe90d;" glyph-name="arrow-down-left-square" data-tags="arrow-down-left-square" d="M85.333 832c0 23.564 19.103 42.667 42.667 42.667h768c23.565 0 42.667-19.103 42.667-42.667v-768c0-23.565-19.102-42.667-42.667-42.667h-768c-23.564 0-42.667 19.102-42.667 42.667v768zM170.667 789.333v-682.667h682.667v682.667h-682.667zM675.345 600.997c16.666-16.662 16.666-43.677 0-60.34l-176.943-176.945 75.213-6.839c23.467-2.133 40.764-22.886 38.63-46.353s-22.886-40.759-46.357-38.626l-165.933 15.083c-20.512 1.865-36.764 18.116-38.629 38.63l-15.085 165.935c-2.133 23.467 15.161 44.219 38.628 46.352s44.22-15.163 46.353-38.63l6.839-75.213 176.943 176.945c16.666 16.663 43.678 16.663 60.339 0z" />
<glyph unicode="&#xe90e;" glyph-name="arrow-down-left" data-tags="arrow-down-left" d="M707.661 654.013c16.661-16.662 16.661-43.677 0-60.34l-267.456-267.453 75.213-6.839c23.467-2.133 40.764-22.886 38.63-46.353s-22.886-40.764-46.353-38.63l-165.936 15.087c-20.512 1.865-36.764 18.116-38.629 38.626l-15.085 165.935c-2.133 23.467 15.161 44.22 38.629 46.353s44.221-15.159 46.354-38.626l6.838-75.213 267.456 267.453c16.661 16.663 43.678 16.663 60.339 0z" />
<glyph unicode="&#xe90f;" glyph-name="arrow-down-right-circle" data-tags="arrow-down-right-circle" d="M348.655 600.997c-16.663-16.662-16.663-43.677 0-60.34l176.943-176.945-75.213-6.839c-23.467-2.133-40.761-22.886-38.627-46.353s22.888-40.759 46.354-38.626l165.935 15.083c20.51 1.865 36.762 18.116 38.626 38.63l15.087 165.935c2.133 23.467-15.159 44.219-38.63 46.352-23.467 2.133-44.22-15.163-46.353-38.63l-6.835-75.213-176.947 176.945c-16.662 16.663-43.677 16.663-60.34 0zM85.333 448c0 235.642 191.025 426.667 426.667 426.667 235.639 0 426.667-191.025 426.667-426.667 0-235.639-191.027-426.667-426.667-426.667-235.642 0-426.667 191.027-426.667 426.667zM512 789.333c-188.513 0-341.333-152.82-341.333-341.333s152.82-341.333 341.333-341.333c188.514 0 341.333 152.819 341.333 341.333s-152.819 341.333-341.333 341.333z" />
<glyph unicode="&#xe910;" glyph-name="arrow-down-right-square" data-tags="arrow-down-right-square" d="M938.667 832c0 23.564-19.102 42.667-42.667 42.667h-768c-23.564 0-42.667-19.103-42.667-42.667v-768c0-23.565 19.103-42.667 42.667-42.667h768c23.565 0 42.667 19.102 42.667 42.667v768zM853.333 789.333v-682.667h-682.667v682.667h682.667zM348.653 600.997c-16.663-16.662-16.663-43.677 0-60.34l176.945-176.945-75.213-6.839c-23.467-2.133-40.762-22.886-38.629-46.353s22.885-40.759 46.356-38.626l165.935 15.083c20.51 1.865 36.762 18.116 38.626 38.63l15.087 165.935c2.133 23.467-15.164 44.219-38.63 46.352s-44.22-15.163-46.353-38.63l-6.839-75.213-176.944 176.945c-16.663 16.663-43.677 16.663-60.34 0z" />
<glyph unicode="&#xe911;" glyph-name="arrow-down-right" data-tags="arrow-down-right" d="M316.359 654.034c16.674 16.651 43.689 16.633 60.34-0.041l267.222-267.578 7.061 75.469c2.193 23.462 22.993 40.704 46.455 38.507s40.7-22.993 38.507-46.455l-15.531-165.935c-1.911-20.463-18.146-36.655-38.618-38.515l-165.935-15.087c-23.467-2.133-44.22 15.164-46.353 38.63s15.159 44.22 38.63 46.353l75.29 6.844-267.109 267.469c-16.652 16.674-16.633 43.689 0.040 60.34z" />
<glyph unicode="&#xe912;" glyph-name="arrow-down-square" data-tags="arrow-down-square" d="M512 661.333c23.565 0 42.667-19.103 42.667-42.667v-250.24l58.018 48.35c18.103 15.087 45.009 12.642 60.092-5.461 15.087-18.103 12.642-45.009-5.461-60.092l-128-106.667c-15.825-13.188-38.805-13.188-54.63 0l-128 106.667c-18.103 15.083-20.548 41.988-5.463 60.092s41.99 20.548 60.092 5.461l58.019-48.35v250.24c0 23.564 19.102 42.667 42.667 42.667zM85.333 832c0 23.564 19.103 42.667 42.667 42.667h768c23.565 0 42.667-19.103 42.667-42.667v-768c0-23.565-19.102-42.667-42.667-42.667h-768c-23.564 0-42.667 19.102-42.667 42.667v768zM170.667 789.333v-682.667h682.667v682.667h-682.667z" />
<glyph unicode="&#xe913;" glyph-name="arrow-down" data-tags="arrow-down" d="M501.333 746.668c23.565 0 42.667-19.102 42.667-42.666v-378.238l58.018 48.35c18.103 15.083 45.009 12.638 60.092-5.466 15.087-18.099 12.642-45.005-5.461-60.092l-128-106.667c-15.825-13.184-38.805-13.184-54.63 0l-128 106.667c-18.102 15.087-20.548 41.993-5.463 60.092 15.085 18.103 41.989 20.548 60.092 5.466l58.019-48.35v378.238c0 23.564 19.102 42.667 42.667 42.666z" />
<glyph unicode="&#xe914;" glyph-name="arrow-left-cricle" data-tags="arrow-left-cricle" d="M85.333 448c0 235.642 191.025 426.667 426.667 426.667 235.639 0 426.667-191.025 426.667-426.667 0-235.639-191.027-426.667-426.667-426.667-235.642 0-426.667 191.027-426.667 426.667zM512 789.333c-188.513 0-341.333-152.82-341.333-341.333s152.82-341.333 341.333-341.333c188.514 0 341.333 152.819 341.333 341.333s-152.819 341.333-341.333 341.333zM725.333 448c0 23.565-19.102 42.667-42.667 42.667h-250.24l48.35 58.020c15.087 18.103 12.642 45.007-5.461 60.092s-45.009 12.64-60.093-5.463l-106.667-128c-13.186-15.821-13.186-38.805 0-54.63l106.667-128c15.084-18.099 41.989-20.548 60.093-5.461s20.548 41.988 5.461 60.092l-48.35 58.018h250.24c23.565 0 42.667 19.102 42.667 42.667z" />
<glyph unicode="&#xe915;" glyph-name="arrow-left-square" data-tags="arrow-left-square" d="M725.333 448c0 23.565-19.102 42.667-42.667 42.667h-250.24l48.35 58.020c15.087 18.103 12.642 45.007-5.461 60.092s-45.009 12.64-60.093-5.463l-106.667-128c-13.186-15.821-13.186-38.805 0-54.63l106.667-128c15.084-18.099 41.989-20.548 60.093-5.461s20.548 41.988 5.461 60.092l-48.35 58.018h250.24c23.565 0 42.667 19.102 42.667 42.667zM85.333 832c0 23.564 19.103 42.667 42.667 42.667h768c23.565 0 42.667-19.103 42.667-42.667v-768c0-23.565-19.102-42.667-42.667-42.667h-768c-23.564 0-42.667 19.102-42.667 42.667v768zM170.667 789.333v-682.667h682.667v682.667h-682.667z" />
<glyph unicode="&#xe916;" glyph-name="arrow-right-cricle" data-tags="arrow-right-cricle" d="M85.333 448c0 235.642 191.025 426.667 426.667 426.667 235.639 0 426.667-191.025 426.667-426.667 0-235.639-191.027-426.667-426.667-426.667-235.642 0-426.667 191.027-426.667 426.667zM512 789.333c-188.513 0-341.333-152.82-341.333-341.333s152.82-341.333 341.333-341.333c188.514 0 341.333 152.819 341.333 341.333s-152.819 341.333-341.333 341.333zM298.667 448c0-23.565 19.103-42.667 42.667-42.667h250.24l-48.35-58.018c-15.087-18.103-12.642-45.009 5.461-60.092 18.103-15.087 45.009-12.642 60.092 5.461l106.667 128c13.188 15.821 13.188 38.805 0 54.63l-106.667 127.998c-15.083 18.103-41.988 20.548-60.092 5.463s-20.548-41.99-5.461-60.092l48.35-58.018h-250.24c-23.564 0-42.667-19.102-42.667-42.667z" />
<glyph unicode="&#xe917;" glyph-name="arrow-right-square" data-tags="arrow-right-square" d="M298.667 448c0-23.565 19.103-42.667 42.667-42.667h250.24l-48.35-58.018c-15.087-18.103-12.642-45.009 5.461-60.092 18.103-15.087 45.009-12.642 60.092 5.461l106.667 128c13.188 15.821 13.188 38.805 0 54.63l-106.667 127.998c-15.083 18.103-41.988 20.548-60.092 5.463s-20.548-41.99-5.461-60.092l48.35-58.018h-250.24c-23.564 0-42.667-19.102-42.667-42.667zM85.333 832c0 23.564 19.103 42.667 42.667 42.667h768c23.565 0 42.667-19.103 42.667-42.667v-768c0-23.565-19.102-42.667-42.667-42.667h-768c-23.564 0-42.667 19.102-42.667 42.667v768zM170.667 789.333v-682.667h682.667v682.667h-682.667z" />
<glyph unicode="&#xe918;" glyph-name="arrow-right" data-tags="arrow-right" d="M224 480c0 23.561 19.103 42.667 42.667 42.667h378.24l-48.35 58.017c-15.087 18.102-12.642 45.007 5.461 60.092s45.009 12.64 60.092-5.463l106.667-128.002c13.188-15.821 13.188-38.805 0-54.626l-106.667-128c-15.083-18.103-41.988-20.548-60.092-5.466-18.103 15.087-20.548 41.993-5.461 60.092l48.35 58.022h-378.24c-23.564 0-42.667 19.102-42.667 42.667z" />
<glyph unicode="&#xe919;" glyph-name="arrow-up-circle" data-tags="arrow-up-circle" d="M85.333 448c0 235.642 191.025 426.667 426.667 426.667 235.639 0 426.667-191.025 426.667-426.667 0-235.639-191.027-426.667-426.667-426.667-235.642 0-426.667 191.027-426.667 426.667zM512 789.333c-188.513 0-341.333-152.82-341.333-341.333s152.82-341.333 341.333-341.333c188.514 0 341.333 152.819 341.333 341.333s-152.819 341.333-341.333 341.333zM512 234.667c23.565 0 42.667 19.102 42.667 42.667v250.24l58.018-48.35c18.103-15.087 45.009-12.642 60.092 5.461 15.087 18.103 12.642 45.009-5.461 60.093l-128 106.667c-15.825 13.186-38.805 13.186-54.63 0l-128-106.667c-18.103-15.084-20.548-41.989-5.463-60.093s41.99-20.548 60.092-5.461l58.019 48.35v-250.24c0-23.565 19.102-42.667 42.667-42.667z" />
<glyph unicode="&#xe91a;" glyph-name="arrow-up-left-cricle" data-tags="arrow-up-left-cricle" d="M85.333 448c0 235.642 191.025 426.667 426.667 426.667 235.639 0 426.667-191.025 426.667-426.667 0-235.639-191.027-426.667-426.667-426.667-235.642 0-426.667 191.027-426.667 426.667zM512 789.333c-188.513 0-341.333-152.82-341.333-341.333s152.82-341.333 341.333-341.333c188.514 0 341.333 152.819 341.333 341.333s-152.819 341.333-341.333 341.333zM660.706 284.655c-16.661-16.666-43.678-16.666-60.339 0l-176.947 176.943-6.838-75.213c-2.133-23.467-22.887-40.764-46.354-38.63s-40.762 22.886-38.629 46.357l15.085 165.933c1.865 20.512 18.117 36.764 38.629 38.629l165.936 15.085c23.467 2.133 44.22-15.161 46.353-38.628s-15.159-44.22-38.63-46.353l-75.213-6.839 176.947-176.943c16.661-16.666 16.661-43.678 0-60.339z" />
<glyph unicode="&#xe91b;" glyph-name="arrow-up-left-square" data-tags="arrow-up-left-square" d="M660.706 284.655c-16.661-16.666-43.678-16.666-60.339 0l-176.947 176.943-6.838-75.213c-2.133-23.467-22.887-40.764-46.354-38.63s-40.762 22.886-38.629 46.357l15.085 165.933c1.865 20.512 18.117 36.764 38.629 38.629l165.936 15.085c23.467 2.133 44.22-15.161 46.353-38.628s-15.159-44.22-38.63-46.353l-75.213-6.839 176.947-176.943c16.661-16.666 16.661-43.678 0-60.339zM85.333 832c0 23.564 19.103 42.667 42.667 42.667h768c23.565 0 42.667-19.103 42.667-42.667v-768c0-23.565-19.102-42.667-42.667-42.667h-768c-23.564 0-42.667 19.102-42.667 42.667v768zM170.667 789.333v-682.667h682.667v682.667h-682.667z" />
<glyph unicode="&#xe91c;" glyph-name="arrow-up-left" data-tags="arrow-up-left" d="M712.836 241.54c-16.661-16.661-43.678-16.661-60.339 0l-267.455 267.456-6.837-75.213c-2.134-23.471-22.887-40.764-46.354-38.63s-40.762 22.886-38.629 46.353l15.085 165.936c1.865 20.512 18.117 36.764 38.629 38.629l165.935 15.085c23.467 2.133 44.22-15.161 46.353-38.629s-15.159-44.221-38.63-46.354l-75.213-6.837 267.456-267.456c16.661-16.661 16.661-43.678 0-60.339z" />
<glyph unicode="&#xe91d;" glyph-name="arrow-up-right-circle" data-tags="arrow-up-right-circle" d="M85.333 448c0 235.642 191.025 426.667 426.667 426.667 235.639 0 426.667-191.025 426.667-426.667 0-235.639-191.027-426.667-426.667-426.667-235.642 0-426.667 191.027-426.667 426.667zM512 789.333c-188.513 0-341.333-152.82-341.333-341.333s152.82-341.333 341.333-341.333c188.514 0 341.333 152.819 341.333 341.333s-152.819 341.333-341.333 341.333zM359.006 284.655c16.663-16.666 43.677-16.666 60.34 0l176.946 176.943 6.835-75.213c2.133-23.467 22.886-40.764 46.357-38.63 23.467 2.133 40.759 22.886 38.626 46.357l-15.083 165.933c-1.865 20.512-18.116 36.764-38.63 38.629l-165.935 15.085c-23.467 2.133-44.22-15.161-46.353-38.628s15.16-44.22 38.631-46.353l75.213-6.839-176.947-176.943c-16.662-16.666-16.662-43.678 0-60.339z" />
<glyph unicode="&#xe91e;" glyph-name="arrow-up-right-square" data-tags="arrow-up-right-square" d="M359.006 284.655c16.662-16.666 43.677-16.666 60.34 0l176.946 176.943 6.835-75.213c2.133-23.467 22.886-40.764 46.357-38.63 23.467 2.133 40.759 22.886 38.626 46.357l-15.083 165.933c-1.865 20.512-18.116 36.764-38.63 38.629l-165.935 15.085c-23.467 2.133-44.22-15.161-46.353-38.628s15.16-44.22 38.627-46.353l75.217-6.839-176.947-176.943c-16.662-16.666-16.662-43.678 0-60.339zM85.333 832c0 23.564 19.103 42.667 42.667 42.667h768c23.565 0 42.667-19.103 42.667-42.667v-768c0-23.565-19.102-42.667-42.667-42.667h-768c-23.564 0-42.667 19.102-42.667 42.667v768zM170.667 789.333v-682.667h682.667v682.667h-682.667z" />
<glyph unicode="&#xe91f;" glyph-name="arrow-up-right" data-tags="arrow-up-right" d="M305.543 247.164c-16.662 16.661-16.662 43.678 0 60.339l267.453 267.455-75.213 6.837c-23.467 2.134-40.759 22.887-38.626 46.354s22.886 40.762 46.353 38.629l165.935-15.085c20.51-1.865 36.762-18.117 38.626-38.629l15.087-165.935c2.133-23.467-15.164-44.22-38.63-46.353s-44.22 15.159-46.353 38.63l-6.839 75.213-267.453-267.456c-16.663-16.661-43.677-16.661-60.34 0z" />
<glyph unicode="&#xe920;" glyph-name="arrow-up-square" data-tags="arrow-up-square" d="M512 234.667c23.565 0 42.667 19.102 42.667 42.667v250.24l58.018-48.35c18.103-15.087 45.009-12.642 60.092 5.461 15.087 18.103 12.642 45.009-5.461 60.093l-128 106.667c-15.825 13.186-38.805 13.186-54.63 0l-128-106.667c-18.103-15.084-20.548-41.989-5.463-60.093s41.99-20.548 60.092-5.461l58.019 48.35v-250.24c0-23.565 19.102-42.667 42.667-42.667zM85.333 832c0 23.564 19.103 42.667 42.667 42.667h768c23.565 0 42.667-19.103 42.667-42.667v-768c0-23.565-19.102-42.667-42.667-42.667h-768c-23.564 0-42.667 19.102-42.667 42.667v768zM170.667 789.333v-682.667h682.667v682.667h-682.667z" />
<glyph unicode="&#xe921;" glyph-name="arrow-up" data-tags="arrow-up" d="M480 170.667c-23.565 0-42.667 19.102-42.667 42.667v378.236l-58.019-48.349c-18.103-15.084-45.007-12.639-60.092 5.463s-12.64 45.007 5.463 60.092l128 106.667c15.821 13.185 38.805 13.185 54.63 0l128-106.667c18.099-15.086 20.548-41.99 5.461-60.092s-41.988-20.547-60.092-5.463l-58.018 48.349v-378.236c0-23.565-19.102-42.667-42.667-42.667z" />
<glyph unicode="&#xe922;" glyph-name="at" data-tags="at" d="M490.667 789.333c-200.295 0-362.667-162.371-362.667-362.667s162.371-362.667 362.667-362.667c40.094 0 78.588 6.49 114.534 18.445 22.362 7.437 46.515-4.663 53.952-27.021 7.437-22.362-4.663-46.515-27.021-53.952-44.523-14.805-92.105-22.805-141.466-22.805-247.424 0-448 200.576-448 448s200.576 448 448 448c247.424 0 448-200.576 448-448 0-57.438-10.833-112.452-30.601-163.029-23.795-81.66-96.734-129.421-165.449-132.915-35.294-1.796-72.324 7.987-100.881 34.15-26.923 24.666-42.078 59.985-44.156 102.293-30.558-20.527-67.337-32.499-106.914-32.499-106.039 0-192 85.961-192 192s85.961 192 192 192c39.471 0 76.16-11.91 106.667-32.332v32.332c0 23.564 19.102 42.667 42.667 42.667s42.667-19.103 42.667-42.667v-341.333c0-27.844 8.649-42.155 16.713-49.54 8.55-7.834 21.747-12.719 38.903-11.849 35.558 1.809 75.708 27.861 88.218 72.823 0.405 1.455 0.883 2.889 1.442 4.292 16.371 41.289 25.391 86.345 25.391 133.606 0 200.295-162.372 362.667-362.667 362.667zM597.333 426.667c0 58.91-47.757 106.667-106.667 106.667s-106.667-47.757-106.667-106.667c0-58.91 47.757-106.667 106.667-106.667s106.667 47.757 106.667 106.667z" />
<glyph unicode="&#xe923;" glyph-name="award" data-tags="award" d="M512 832c117.82 0 213.333-95.513 213.333-213.333 0-71.141-34.82-134.148-88.35-172.907-0.367-0.256-0.725-0.516-1.084-0.781-34.927-24.96-77.696-39.646-123.9-39.646s-88.974 14.686-123.901 39.646c-0.356 0.265-0.716 0.525-1.081 0.781-53.529 38.758-88.351 101.766-88.351 172.907 0 117.821 95.513 213.333 213.333 213.333zM707.503 392.875c63.194 54.763 103.164 135.607 103.164 225.792 0 164.949-133.717 298.667-298.667 298.667s-298.667-133.718-298.667-298.667c0-90.185 39.971-171.029 103.162-225.792l-59.931-364.621c-2.696-16.401 4.379-32.875 18.129-42.214s31.672-9.843 45.925-1.293l191.381 114.829 191.381-114.829c14.255-8.55 32.175-8.047 45.926 1.293 13.747 9.34 20.821 25.813 18.129 42.214l-59.934 364.621zM629.086 343.825l39.206-238.507-134.34 80.602c-13.513 8.107-30.391 8.107-43.904 0l-134.338-80.602 39.202 238.507c35.953-15.339 75.531-23.825 117.088-23.825s81.135 8.486 117.086 23.825z" />
<glyph unicode="&#xe924;" glyph-name="bag-2" data-tags="bag-2" d="M170.667 746.667c0 23.564 19.103 42.667 42.667 42.667h597.333c23.565 0 42.667-19.103 42.667-42.667v-512c0-70.694-57.306-128-128-128h-426.667c-70.692 0-128 57.306-128 128v512zM256 704v-469.333c0-23.565 19.103-42.667 42.667-42.667h426.667c23.565 0 42.667 19.102 42.667 42.667v469.333h-512zM645.483 517.487c-6.481-16.196-22.17-26.82-39.616-26.82h-187.734c-17.446 0-33.135 10.624-39.615 26.82l-34.133 85.334c-8.752 21.879 1.89 46.709 23.769 55.461s46.71-1.891 55.461-23.769l23.404-58.513h129.963l23.403 58.513c8.751 21.879 33.583 32.521 55.462 23.769s32.521-33.583 23.77-55.461l-34.133-85.334z" />
<glyph unicode="&#xe925;" glyph-name="bag-3" data-tags="bag-3" d="M239.171 808.414c7.227 14.455 22.001 23.586 38.162 23.586h469.333c16.162 0 30.933-9.131 38.161-23.586l64-128c2.965-5.924 4.506-12.457 4.506-19.081v-512c0-70.694-57.306-128-128-128h-426.667c-70.692 0-128 57.306-128 128v512c0 6.624 1.542 13.157 4.504 19.081l64 128zM303.703 746.667l-21.333-42.667h459.263l-21.333 42.667h-416.596zM768 618.667h-512v-469.333c0-23.565 19.102-42.667 42.667-42.667h426.667c23.565 0 42.667 19.102 42.667 42.667v469.333zM645.483 389.487c-6.481-16.196-22.17-26.82-39.616-26.82h-187.734c-17.446 0-33.135 10.624-39.615 26.82l-34.133 85.333c-8.752 21.879 1.89 46.711 23.769 55.462s46.71-1.89 55.461-23.77l23.404-58.513h129.963l23.403 58.513c8.751 21.879 33.583 32.52 55.462 23.77s32.521-33.583 23.77-55.462l-34.133-85.333z" />
<glyph unicode="&#xe926;" glyph-name="bag" data-tags="bag" d="M345.618 842.993c4.981 18.678 21.896 31.673 41.226 31.673h250.31c19.332 0 36.245-12.995 41.229-31.673l37.065-138.993h95.219c23.565 0 42.667-19.103 42.667-42.667v-512c0-70.694-57.306-128-128-128h-426.667c-70.692 0-128 57.306-128 128v512c0 23.564 19.103 42.667 42.667 42.667h95.22l37.065 138.993zM768 618.667h-512v-469.333c0-23.565 19.103-42.667 42.667-42.667h426.667c23.565 0 42.667 19.102 42.667 42.667v469.333zM627.132 704l-22.754 85.333h-184.753l-22.756-85.333h230.263z" />
<glyph unicode="&#xe927;" glyph-name="bar-chart-1" data-tags="bar-chart-1" d="M512 832c-23.565 0-42.667-19.103-42.667-42.667v-682.667c0-23.565 19.102-42.667 42.667-42.667s42.667 19.102 42.667 42.667v682.667c0 23.564-19.102 42.667-42.667 42.667zM725.333 618.667c-23.565 0-42.667-19.103-42.667-42.667v-469.333c0-23.565 19.102-42.667 42.667-42.667s42.667 19.102 42.667 42.667v469.333c0 23.564-19.102 42.667-42.667 42.667zM298.667 618.667c23.564 0 42.667-19.103 42.667-42.667v-469.333c0-23.565-19.102-42.667-42.667-42.667s-42.667 19.102-42.667 42.667v469.333c0 23.564 19.103 42.667 42.667 42.667z" />
<glyph unicode="&#xe928;" glyph-name="bar-chart-2" data-tags="bar-chart-2" d="M512 618.667c23.565 0 42.667-19.103 42.667-42.667v-469.333c0-23.565-19.102-42.667-42.667-42.667s-42.667 19.102-42.667 42.667v469.333c0 23.564 19.102 42.667 42.667 42.667zM768 106.667v682.667c0 23.564-19.102 42.667-42.667 42.667s-42.667-19.103-42.667-42.667v-682.667c0-23.565 19.102-42.667 42.667-42.667s42.667 19.102 42.667 42.667zM298.667 832c23.564 0 42.667-19.103 42.667-42.667v-682.667c0-23.565-19.102-42.667-42.667-42.667s-42.667 19.102-42.667 42.667v682.667c0 23.564 19.103 42.667 42.667 42.667z" />
<glyph unicode="&#xe929;" glyph-name="bar-chart-down" data-tags="bar-chart-down" d="M554.667 618.667c-23.565 0-42.667-19.103-42.667-42.667v-469.333c0-23.565 19.102-42.667 42.667-42.667s42.667 19.102 42.667 42.667v469.333c0 23.564-19.102 42.667-42.667 42.667zM768 362.667c-23.565 0-42.667-19.102-42.667-42.667v-213.333c0-23.565 19.102-42.667 42.667-42.667s42.667 19.102 42.667 42.667v213.333c0 23.565-19.102 42.667-42.667 42.667zM341.333 832c-23.564 0-42.667-19.103-42.667-42.667v-682.667c0-23.565 19.102-42.667 42.667-42.667s42.667 19.102 42.667 42.667v682.667c0 23.564-19.103 42.667-42.667 42.667z" />
<glyph unicode="&#xe92a;" glyph-name="bar-chart-up" data-tags="bar-chart-up" d="M512 618.667c23.565 0 42.667-19.103 42.667-42.667v-469.333c0-23.565-19.102-42.667-42.667-42.667s-42.667 19.102-42.667 42.667v469.333c0 23.564 19.102 42.667 42.667 42.667zM298.667 362.667c23.564 0 42.667-19.102 42.667-42.667v-213.333c0-23.565-19.102-42.667-42.667-42.667s-42.667 19.102-42.667 42.667v213.333c0 23.565 19.103 42.667 42.667 42.667zM725.333 832c23.565 0 42.667-19.103 42.667-42.667v-682.667c0-23.565-19.102-42.667-42.667-42.667s-42.667 19.102-42.667 42.667v682.667c0 23.564 19.102 42.667 42.667 42.667z" />
<glyph unicode="&#xe92b;" glyph-name="battery-charging" data-tags="battery-charging" d="M213.333 533.333c0 47.128 38.205 85.333 85.333 85.333h512c47.13 0 85.333-38.205 85.333-85.333v-256c0-47.13-38.204-85.333-85.333-85.333h-512c-47.128 0-85.333 38.204-85.333 85.333v48.375c-6.276-3.631-13.562-5.709-21.333-5.709-35.346 0-64 28.655-64 64v42.667c0 35.345 28.654 64 64 64 7.771 0 15.057-2.078 21.333-5.709v48.375zM810.667 533.333h-512v-256h512v256zM421.229 466.859c34.033 47.646 104.843 47.646 138.878 0l71.949-100.727c13.696-19.174 9.254-45.82-9.92-59.516-19.179-13.696-45.824-9.259-59.52 9.92l-71.949 100.723-71.947-100.723c-13.696-19.179-40.344-23.616-59.519-9.92s-23.616 40.341-9.92 59.516l71.948 100.727zM570.018 308.557c18.103-15.087 45.009-12.642 60.092 5.461l106.667 128c15.087 18.103 12.642 45.009-5.461 60.092-18.103 15.087-45.005 12.642-60.092-5.461l-106.667-128c-15.087-18.103-12.638-45.009 5.461-60.092z" />
<glyph unicode="&#xe92c;" glyph-name="battery-ending" data-tags="battery-ending" d="M213.333 533.333c0 47.128 38.205 85.333 85.333 85.333h512c47.13 0 85.333-38.205 85.333-85.333v-256c0-47.13-38.204-85.333-85.333-85.333h-512c-47.128 0-85.333 38.204-85.333 85.333v48.375c-6.276-3.631-13.562-5.709-21.333-5.709-35.346 0-64 28.655-64 64v42.667c0 35.345 28.654 64 64 64 7.771 0 15.057-2.078 21.333-5.709v48.375zM640 533.333h-341.333v-256h341.333v256zM725.333 533.333v-256h85.333v256h-85.333z" />
<glyph unicode="&#xe92d;" glyph-name="battery-half" data-tags="battery-half" d="M213.333 533.333c0 47.128 38.205 85.333 85.333 85.333h512c47.13 0 85.333-38.205 85.333-85.333v-256c0-47.13-38.204-85.333-85.333-85.333h-512c-47.128 0-85.333 38.204-85.333 85.333v48.375c-6.276-3.631-13.562-5.709-21.333-5.709-35.346 0-64 28.655-64 64v42.667c0 35.345 28.654 64 64 64 7.771 0 15.057-2.078 21.333-5.709v48.375zM512 533.333h-213.333v-256h213.333v256zM597.333 533.333v-256h213.333v256h-213.333z" />
<glyph unicode="&#xe92e;" glyph-name="battery-off" data-tags="battery-off" d="M512 576c0 23.564 19.102 42.667 42.667 42.667h256c47.13 0 85.333-38.205 85.333-85.333v-256c0-23.565-19.102-42.667-42.667-42.667s-42.667 19.102-42.667 42.667v256h-256c-23.565 0-42.667 19.103-42.667 42.667zM256 576c23.564 0 42.667-19.103 42.667-42.667v-256h256c23.565 0 42.667-19.102 42.667-42.667s-19.102-42.667-42.667-42.667h-256c-47.128 0-85.333 38.204-85.333 85.333v42.667h-21.333c-35.346 0-64 28.655-64 64v42.667c0 35.345 28.654 64 64 64h21.333v42.667c0 23.564 19.103 42.667 42.667 42.667zM76.497 883.503c16.663 16.662 43.677 16.662 60.34 0l810.666-810.667c16.661-16.661 16.661-43.678 0-60.339s-43.678-16.661-60.339 0l-810.667 810.666c-16.662 16.663-16.662 43.677 0 60.34z" />
<glyph unicode="&#xe92f;" glyph-name="battery" data-tags="battery" d="M213.333 533.333c0 47.128 38.205 85.333 85.333 85.333h512c47.13 0 85.333-38.205 85.333-85.333v-256c0-47.13-38.204-85.333-85.333-85.333h-512c-47.128 0-85.333 38.204-85.333 85.333v48.375c-6.276-3.631-13.562-5.709-21.333-5.709-35.346 0-64 28.655-64 64v42.667c0 35.345 28.654 64 64 64 7.771 0 15.057-2.078 21.333-5.709v48.375zM810.667 533.333h-512v-256h512v256z" />
<glyph unicode="&#xe930;" glyph-name="bell-off" data-tags="bell-off" d="M359.155 824.126c44.441 31.546 98.368 50.541 157.137 50.541 160.384 0 280.516-139.434 274.462-295.19-0.896-23.045-1.421-45.821-1.421-67.476 0-51.776 25.788-115.179 58.496-173.175 11.575-20.523 4.322-46.545-16.205-58.121-20.523-11.575-46.545-4.322-58.121 16.205-34.21 60.655-69.504 140.241-69.504 215.091 0 22.993 0.559 46.901 1.485 70.79 4.352 111.929-81.685 206.543-189.193 206.543-39.949 0-76.791-12.821-107.744-34.793-19.215-13.64-45.85-9.12-59.489 10.096s-9.12 45.849 10.096 59.489zM277.332 554.667c23.564 0 42.667-19.103 42.667-42.667 0-101.508-41.91-189.683-81.548-250.735-6.136-9.451-12.27-18.334-18.26-26.598h334.476c23.565 0 42.667-19.102 42.667-42.667s-19.102-42.667-42.667-42.667h-426.668c-17.508 0-33.239 10.697-39.677 26.978-6.431 16.26-2.287 34.799 10.451 46.775 0.006 0.004-0.006-0.009 0 0 0.009 0.009 0.035 0.030 0.044 0.038l0.111 0.107 0.92 0.892c0.871 0.853 2.244 2.214 4.047 4.058 3.609 3.695 8.925 9.314 15.381 16.666 12.945 14.737 30.286 36.215 47.603 62.886 35.029 53.952 67.786 125.777 67.786 204.267 0 23.564 19.102 42.667 42.667 42.667zM400.077 97.37c18.429 14.682 45.274 11.648 59.959-6.78 13.687-17.182 32.405-26.59 51.964-26.59s38.272 9.408 51.964 26.59c14.686 18.428 41.527 21.461 59.959 6.78 18.428-14.686 21.461-41.527 6.78-59.959-28.006-35.149-70.298-58.743-118.703-58.743s-90.697 23.595-118.703 58.743c-14.685 18.432-11.649 45.274 6.78 59.959zM76.497 883.503c16.663 16.662 43.677 16.662 60.34 0l810.666-810.667c16.661-16.661 16.661-43.678 0-60.339s-43.678-16.661-60.339 0l-810.667 810.666c-16.662 16.663-16.662 43.677 0 60.34z" />
<glyph unicode="&#xe931;" glyph-name="bell" data-tags="bell" d="M233.89 571.583c-4.067 157.885 118.588 303.084 282.402 303.084 160.384 0 280.516-139.434 274.462-295.19-0.896-23.045-1.421-45.821-1.421-67.476 0-57.604 31.821-129.003 68.629-190.622 17.805-29.807 35.669-55.535 49.092-73.809 6.694-9.118 12.245-16.324 16.073-21.197 1.916-2.432 3.396-4.279 4.369-5.487l1.075-1.323 0.239-0.29 0.034-0.038c10.551-12.727 12.804-30.409 5.773-45.372-7.031-14.972-22.080-24.529-38.618-24.529h-768.001c-17.508 0-33.239 10.697-39.677 26.978-6.431 16.26-2.287 34.799 10.451 46.775 0.006 0.004-0.006-0.009 0 0 0.009 0.009 0.035 0.030 0.044 0.038l0.111 0.107 0.92 0.892c0.871 0.853 2.244 2.214 4.047 4.058 3.609 3.695 8.925 9.314 15.381 16.666 12.945 14.737 30.286 36.215 47.603 62.886 35.029 53.952 67.786 125.777 67.786 204.267 0 20.425-0.28 40.337-0.776 59.583zM220.191 234.667h591.718c-8.713 13.022-17.954 27.465-27.204 42.953-37.862 63.381-80.704 151.987-80.704 234.381 0 22.993 0.559 46.901 1.485 70.79 4.352 111.929-81.685 206.543-189.193 206.543-110.050 0-200.082-99.661-197.097-215.553 0.514-19.932 0.804-40.579 0.804-61.78 0-101.508-41.91-189.683-81.548-250.735-6.136-9.451-12.27-18.334-18.26-26.598zM400.077 97.37c18.429 14.682 45.274 11.648 59.959-6.78 13.687-17.182 32.405-26.59 51.964-26.59s38.272 9.408 51.964 26.59c14.686 18.428 41.527 21.461 59.959 6.78 18.428-14.686 21.461-41.527 6.78-59.959-28.006-35.149-70.298-58.743-118.703-58.743s-90.697 23.595-118.703 58.743c-14.685 18.432-11.649 45.274 6.78 59.959z" />
<glyph unicode="&#xe932;" glyph-name="bitcoin-sign" data-tags="bitcoin-sign" d="M426.667 874.667c23.565 0 42.667-19.103 42.667-42.667v-69.079h42.667v69.079c0 23.564 19.102 42.667 42.667 42.667s42.667-19.103 42.667-42.667v-79.11c24.226-7.232 46.443-18.206 65.412-32.364 36.147-26.982 62.588-67.573 62.588-116.081 0-41.901-14.349-83.822-50.475-114.439-0.832-0.704-1.677-1.404-2.526-2.095 5.099-3.26 10.057-6.673 14.857-10.231 44.228-32.806 80.811-82.731 80.811-143.458 0-98.368-75.823-175.095-170.667-193.075v-34.479c0-23.565-19.102-42.667-42.667-42.667s-42.667 19.102-42.667 42.667v30.477h-42.667v-30.477c0-23.565-19.102-42.667-42.667-42.667s-42.667 19.102-42.667 42.667v30.477h-128c-23.564 0-42.667 19.102-42.667 42.667s19.103 42.667 42.667 42.667h85.333v455.11h-85.333c-23.564 0-42.667 19.103-42.667 42.667s19.103 42.667 42.667 42.667h128v69.079c0 23.564 19.102 42.667 42.667 42.667zM426.667 677.587v-146.285h100.847c50.355 0 77.854 11.664 92.173 23.801 13.329 11.299 20.314 27.282 20.314 49.341 0 15.451-8.294 32.765-28.297 47.697-15.573 11.624-36.966 20.566-61.973 23.96-0.452 0.052-0.905 0.111-1.353 0.177-6.711 0.853-13.679 1.307-20.864 1.307h-100.847zM527.514 445.969h-100.847v-223.492h128c74.812 0 128 53.948 128 111.744 0 24.555-15.198 51.84-46.315 74.918-30.754 22.81-71.386 36.83-108.838 36.83z" />
<glyph unicode="&#xe933;" glyph-name="bluetooth" data-tags="bluetooth" d="M480.93 827.769c14.758 7.113 32.29 5.146 45.107-5.064l225.882-179.935c10.163-8.095 16.081-20.38 16.081-33.373s-5.918-25.277-16.081-33.373l-168.030-133.85 169.545-148.382c9.259-8.102 14.566-19.806 14.566-32.107s-5.308-24.004-14.566-32.107l-225.882-197.687c-12.599-11.025-30.481-13.666-45.73-6.75-15.245 6.921-25.037 22.114-25.037 38.857v281.664l-133.018-96.768c-19.055-13.862-45.74-9.651-59.603 9.404s-9.652 45.739 9.403 59.601l175.047 127.343-176.465 139.997c-18.461 14.645-21.553 41.483-6.907 59.943s41.483 21.553 59.943 6.907l131.6-104.405v241.647c0 16.385 9.382 31.323 24.145 38.436zM542.118 365.333v-207.292l118.43 103.646-118.43 103.646zM542.118 517.999l114.735 91.399-114.735 91.398v-182.797z" />
<glyph unicode="&#xe934;" glyph-name="bold" data-tags="bold" d="M256 746.667c0 23.564 19.103 42.667 42.667 42.667h277.333c106.039 0 192-85.961 192-192 0-57.228-25.037-108.608-64.755-143.782 11.238-6.903 21.888-14.63 31.787-23.074 43.324-36.941 75.635-90.679 75.635-153.143 0-117.82-95.514-213.333-213.333-213.333h-298.667c-23.564 0-42.667 19.102-42.667 42.667v640zM341.333 405.333v-256h256c70.694 0 128 57.306 128 128 0 31.791-16.559 63.39-45.67 88.213-29.188 24.887-67.554 39.787-103.663 39.787h-234.667zM576 490.667c58.91 0 106.667 47.756 106.667 106.667s-47.757 106.667-106.667 106.667h-234.667v-213.333h234.667z" />
<glyph unicode="&#xe935;" glyph-name="book-open" data-tags="book-open" d="M85.333 746.667c0 23.564 19.103 42.667 42.667 42.667h170.667c89.044 0 167.471-45.462 213.333-114.441 45.862 68.979 124.288 114.441 213.333 114.441h170.667c23.565 0 42.667-19.103 42.667-42.667v-585.143c0-2.069-0.149-4.105-0.431-6.093 0.282-1.993 0.431-4.028 0.431-6.097 0-23.565-19.102-42.667-42.667-42.667h-192c-59.354 0-88.235-9.899-106.048-20.587-14.464-8.678-23.134-17.933-36.053-31.723-5.534-5.905-11.844-12.642-19.729-20.527-16.661-16.661-43.678-16.661-60.339 0-7.885 7.885-14.195 14.622-19.729 20.527-12.919 13.79-21.589 23.044-36.053 31.723-17.812 10.688-46.694 20.587-106.048 20.587h-192c-23.564 0-42.667 19.102-42.667 42.667 0 2.069 0.147 4.105 0.432 6.097-0.285 1.988-0.432 4.023-0.432 6.093v585.143zM170.667 192h149.333c68.249 0 113.899-11.302 149.333-32.375v373.709c0 94.257-76.41 170.667-170.667 170.667h-128v-512zM554.667 533.333v-373.709c35.435 21.073 81.084 32.375 149.333 32.375h149.333v512h-128c-94.255 0-170.667-76.41-170.667-170.667z" />
<glyph unicode="&#xe936;" glyph-name="book" data-tags="book" d="M128 704v-512c0-70.694 57.308-128 128-128h512c23.565 0 42.667 19.102 42.667 42.667s-19.102 42.667-42.667 42.667v85.333c23.565 0 42.667 19.102 42.667 42.667v554.667c0 23.564-19.102 42.667-42.667 42.667h-469.333c-94.257 0-170.667-76.41-170.667-170.667zM213.333 192c0 23.565 19.103 42.667 42.667 42.667h426.667v-85.333h-426.667c-23.564 0-42.667 19.102-42.667 42.667zM725.333 320h-469.333c-14.961 0-29.321-2.569-42.667-7.283v391.283c0 47.128 38.205 85.333 85.333 85.333h426.667v-469.333z" />
<glyph unicode="&#xe937;" glyph-name="bookmark" data-tags="bookmark" d="M213.333 661.331c0 94.257 76.41 170.667 170.667 170.667h256c94.255 0 170.667-76.41 170.667-170.667v-597.335c0-17.404-10.573-33.062-26.714-39.569-16.145-6.511-34.624-2.56-46.694 9.98l-225.259 234.022-225.26-234.022c-12.070-12.54-30.548-16.491-46.691-9.98-16.143 6.507-26.715 22.165-26.715 39.569v597.335zM384 746.664c-47.128 0-85.333-38.205-85.333-85.333v-491.483l182.592 189.696c8.047 8.354 19.145 13.077 30.741 13.077s22.694-4.723 30.741-13.077l182.592-189.696v491.483c0 47.128-38.204 85.333-85.333 85.333h-256z" />
<glyph unicode="&#xe938;" glyph-name="bottombar" data-tags="bottombar" d="M256 789.333h512c47.13 0 85.333-38.205 85.333-85.333v-341.333h-682.667v341.333c0 47.128 38.205 85.333 85.333 85.333zM938.667 704c0 94.257-76.412 170.667-170.667 170.667h-512c-94.257 0-170.667-76.41-170.667-170.667v-512c0-94.255 76.41-170.667 170.667-170.667h512c94.255 0 170.667 76.412 170.667 170.667v512zM853.333 277.333v-85.333c0-47.13-38.204-85.333-85.333-85.333h-512c-47.128 0-85.333 38.204-85.333 85.333v85.333h682.667z" />
<glyph unicode="&#xe939;" glyph-name="box" data-tags="box" d="M496.154 871.615c10.172 4.069 21.521 4.069 31.693 0l426.667-170.667c16.196-6.48 26.82-22.169 26.82-39.615v-457.143c0-17.067-10.172-32.495-25.86-39.215l-426.667-182.857c-10.731-4.604-22.882-4.604-33.613 0l-426.668 182.857c-15.688 6.72-25.859 22.148-25.859 39.215v457.143c0 17.446 10.622 33.135 26.821 39.615l426.666 170.667zM128 596.628v-364.303l341.333-146.287v364.305l-341.333 146.285zM554.667 450.342v-364.305l341.333 146.287v364.303l-341.333-146.285zM827.183 659.974l-315.183 126.073-315.182-126.073 315.182-135.076 315.183 135.076z" />
<glyph unicode="&#xe93a;" glyph-name="briefcase" data-tags="briefcase" d="M298.667 618.667c0 70.692 57.308 128 128 128h170.667c70.694 0 128-57.308 128-128h128c70.694 0 128-57.308 128-128v-298.667c0-70.694-57.306-128-128-128h-682.667c-70.692 0-128 57.306-128 128v298.667c0 70.692 57.308 128 128 128h128zM298.667 533.333h-128c-23.564 0-42.667-19.102-42.667-42.667v-298.667c0-23.565 19.103-42.667 42.667-42.667h128v384zM384 149.333h256v384h-256v-384zM725.333 533.333v-384h128c23.565 0 42.667 19.102 42.667 42.667v298.667c0 23.565-19.102 42.667-42.667 42.667h-128zM426.667 661.333c-23.564 0-42.667-19.103-42.667-42.667h256c0 23.564-19.102 42.667-42.667 42.667h-170.667z" />
<glyph unicode="&#xe93b;" glyph-name="calendar-2" data-tags="calendar-2" d="M128 533.333c0 23.564 19.103 42.667 42.667 42.667h682.667c23.565 0 42.667-19.103 42.667-42.667v-384c0-70.694-57.306-128-128-128h-512c-70.692 0-128 57.306-128 128v384zM213.333 490.667v-341.333c0-23.565 19.103-42.667 42.667-42.667h512c23.565 0 42.667 19.102 42.667 42.667v341.333h-597.333zM128 746.667c0 23.564 19.103 42.667 42.667 42.667h75.852c23.564 0 42.667-19.103 42.667-42.667s-19.103-42.667-42.667-42.667h-33.185v-128h597.333v128h-33.186c-23.565 0-42.667 19.103-42.667 42.667s19.102 42.667 42.667 42.667h75.853c23.565 0 42.667-19.103 42.667-42.667v-213.333c0-23.565-19.102-42.667-42.667-42.667h-682.667c-23.564 0-42.667 19.102-42.667 42.667v213.333zM431.407 746.667c0 23.564 19.102 42.667 42.667 42.667h75.853c23.565 0 42.667-19.103 42.667-42.667s-19.102-42.667-42.667-42.667h-75.853c-23.565 0-42.667 19.103-42.667 42.667zM341.333 832c23.564 0 42.667-19.103 42.667-42.667v-85.333c0-23.564-19.103-42.667-42.667-42.667s-42.667 19.103-42.667 42.667v85.333c0 23.564 19.103 42.667 42.667 42.667zM682.667 832c23.565 0 42.667-19.103 42.667-42.667v-85.333c0-23.564-19.102-42.667-42.667-42.667s-42.667 19.103-42.667 42.667v85.333c0 23.564 19.102 42.667 42.667 42.667zM256 405.333c0 23.565 19.103 42.667 42.667 42.667h0.427c23.564 0 42.667-19.102 42.667-42.667s-19.103-42.667-42.667-42.667h-0.427c-23.564 0-42.667 19.102-42.667 42.667zM256 277.333c0 23.565 19.103 42.667 42.667 42.667h0.427c23.564 0 42.667-19.102 42.667-42.667s-19.103-42.667-42.667-42.667h-0.427c-23.564 0-42.667 19.102-42.667 42.667zM384 405.333c0 23.565 19.103 42.667 42.667 42.667h0.427c23.565 0 42.667-19.102 42.667-42.667s-19.102-42.667-42.667-42.667h-0.427c-23.564 0-42.667 19.102-42.667 42.667zM384 277.333c0 23.565 19.103 42.667 42.667 42.667h0.427c23.565 0 42.667-19.102 42.667-42.667s-19.102-42.667-42.667-42.667h-0.427c-23.564 0-42.667 19.102-42.667 42.667zM512 405.333c0 23.565 19.102 42.667 42.667 42.667h0.427c23.565 0 42.667-19.102 42.667-42.667s-19.102-42.667-42.667-42.667h-0.427c-23.565 0-42.667 19.102-42.667 42.667z" />
<glyph unicode="&#xe93c;" glyph-name="calendar-10" data-tags="calendar-10" d="M128 576c0 23.564 19.103 42.667 42.667 42.667h682.667c23.565 0 42.667-19.103 42.667-42.667v-384c0-70.694-57.306-128-128-128h-512c-70.692 0-128 57.306-128 128v384zM213.333 533.333v-341.333c0-23.565 19.103-42.667 42.667-42.667h512c23.565 0 42.667 19.102 42.667 42.667v341.333h-597.333zM421.661 487.42c15.945-6.605 26.339-22.165 26.339-39.42v-213.333c0-23.565-19.102-42.667-42.667-42.667s-42.667 19.102-42.667 42.667v112.371c-16.317-9.434-37.543-7.168-51.503 6.793-16.662 16.661-16.662 43.678 0 60.339l64 64c12.203 12.203 30.554 15.851 46.498 9.25zM490.667 384c0 58.91 47.757 106.667 106.667 106.667s106.667-47.757 106.667-106.667v-85.333c0-58.91-47.757-106.667-106.667-106.667s-106.667 47.757-106.667 106.667v85.333zM597.333 405.333c-11.78 0-21.333-9.553-21.333-21.333v-85.333c0-11.785 9.553-21.333 21.333-21.333s21.333 9.549 21.333 21.333v85.333c0 11.78-9.553 21.333-21.333 21.333zM128 789.333c0 23.564 19.103 42.667 42.667 42.667h75.852c23.564 0 42.667-19.103 42.667-42.667s-19.103-42.667-42.667-42.667h-33.185v-128h597.333v128h-33.186c-23.565 0-42.667 19.103-42.667 42.667s19.102 42.667 42.667 42.667h75.853c23.565 0 42.667-19.103 42.667-42.667v-213.333c0-23.564-19.102-42.667-42.667-42.667h-682.667c-23.564 0-42.667 19.103-42.667 42.667v213.333zM431.407 789.333c0 23.564 19.102 42.667 42.667 42.667h75.853c23.565 0 42.667-19.103 42.667-42.667s-19.102-42.667-42.667-42.667h-75.853c-23.565 0-42.667 19.103-42.667 42.667zM341.333 874.667c23.564 0 42.667-19.103 42.667-42.667v-85.333c0-23.564-19.103-42.667-42.667-42.667s-42.667 19.103-42.667 42.667v85.333c0 23.564 19.103 42.667 42.667 42.667zM682.667 874.667c23.565 0 42.667-19.103 42.667-42.667v-85.333c0-23.564-19.102-42.667-42.667-42.667s-42.667 19.103-42.667 42.667v85.333c0 23.564 19.102 42.667 42.667 42.667z" />
<glyph unicode="&#xe93d;" glyph-name="calendar-17" data-tags="calendar-17" d="M128 533.333c0 23.564 19.103 42.667 42.667 42.667h682.667c23.565 0 42.667-19.103 42.667-42.667v-384c0-70.694-57.306-128-128-128h-512c-70.692 0-128 57.306-128 128v384zM213.333 490.667v-341.333c0-23.565 19.103-42.667 42.667-42.667h512c23.565 0 42.667 19.102 42.667 42.667v341.333h-597.333zM128 746.667c0 23.564 19.103 42.667 42.667 42.667h75.852c23.564 0 42.667-19.103 42.667-42.667s-19.103-42.667-42.667-42.667h-33.185v-128h597.333v128h-33.186c-23.565 0-42.667 19.103-42.667 42.667s19.102 42.667 42.667 42.667h75.853c23.565 0 42.667-19.103 42.667-42.667v-213.333c0-23.565-19.102-42.667-42.667-42.667h-682.667c-23.564 0-42.667 19.102-42.667 42.667v213.333zM431.407 746.667c0 23.564 19.102 42.667 42.667 42.667h75.853c23.565 0 42.667-19.103 42.667-42.667s-19.102-42.667-42.667-42.667h-75.853c-23.565 0-42.667 19.103-42.667 42.667zM341.333 832c23.564 0 42.667-19.103 42.667-42.667v-85.333c0-23.564-19.103-42.667-42.667-42.667s-42.667 19.103-42.667 42.667v85.333c0 23.564 19.103 42.667 42.667 42.667zM682.667 832c23.565 0 42.667-19.103 42.667-42.667v-85.333c0-23.564-19.102-42.667-42.667-42.667s-42.667 19.103-42.667 42.667v85.333c0 23.564 19.102 42.667 42.667 42.667zM421.661 444.753c15.945-6.605 26.339-22.165 26.339-39.42v-213.333c0-23.565-19.102-42.667-42.667-42.667s-42.667 19.102-42.667 42.667v112.371c-16.317-9.434-37.543-7.168-51.503 6.793-16.662 16.661-16.662 43.678 0 60.339l64 64c12.203 12.203 30.554 15.851 46.498 9.25zM490.667 405.333c0 23.565 19.102 42.667 42.667 42.667h128c14.157 0 27.392-7.023 35.332-18.748 7.936-11.721 9.54-26.62 4.284-39.765l-85.333-213.333c-8.751-21.879-33.583-32.521-55.462-23.77s-32.521 33.583-23.77 55.462l61.931 154.82h-64.981c-23.565 0-42.667 19.102-42.667 42.667z" />
<glyph unicode="&#xe93e;" glyph-name="calendar-meeting" data-tags="calendar-meeting" d="M128 533.333c0 23.564 19.103 42.667 42.667 42.667h682.667c23.565 0 42.667-19.103 42.667-42.667v-384c0-70.694-57.306-128-128-128h-512c-70.692 0-128 57.306-128 128v384zM213.333 490.667v-341.333c0-23.565 19.103-42.667 42.667-42.667h512c23.565 0 42.667 19.102 42.667 42.667v341.333h-597.333zM128 746.667c0 23.564 19.103 42.667 42.667 42.667h75.852c23.564 0 42.667-19.103 42.667-42.667s-19.103-42.667-42.667-42.667h-33.185v-128h597.333v128h-33.186c-23.565 0-42.667 19.103-42.667 42.667s19.102 42.667 42.667 42.667h75.853c23.565 0 42.667-19.103 42.667-42.667v-213.333c0-23.565-19.102-42.667-42.667-42.667h-682.667c-23.564 0-42.667 19.102-42.667 42.667v213.333zM431.407 746.667c0 23.564 19.102 42.667 42.667 42.667h75.853c23.565 0 42.667-19.103 42.667-42.667s-19.102-42.667-42.667-42.667h-75.853c-23.565 0-42.667 19.103-42.667 42.667zM341.333 832c23.564 0 42.667-19.103 42.667-42.667v-85.333c0-23.564-19.103-42.667-42.667-42.667s-42.667 19.103-42.667 42.667v85.333c0 23.564 19.103 42.667 42.667 42.667zM682.667 832c23.565 0 42.667-19.103 42.667-42.667v-85.333c0-23.564-19.102-42.667-42.667-42.667s-42.667 19.103-42.667 42.667v85.333c0 23.564 19.102 42.667 42.667 42.667zM411.904 332.783c4.076 0 7.381 3.302 7.381 7.381 0 4.075-3.305 7.381-7.381 7.381s-7.381-3.307-7.381-7.381c0-4.079 3.305-7.381 7.381-7.381zM333.952 340.164c0 43.051 34.9 77.952 77.952 77.952 43.051 0 77.952-34.901 77.952-77.952 0-43.055-34.901-77.952-77.952-77.952-43.052 0-77.952 34.897-77.952 77.952zM298.667 199.023c0 62.537 50.698 113.237 113.238 113.237s113.237-50.701 113.237-113.237v-11.763c0-23.565-19.102-42.667-42.667-42.667s-42.667 19.102-42.667 42.667v11.763c0 15.411-12.493 27.904-27.904 27.904s-27.904-12.493-27.904-27.904v-11.763c0-23.565-19.103-42.667-42.667-42.667s-42.667 19.102-42.667 42.667v11.763zM612.096 332.783c4.075 0 7.381 3.302 7.381 7.381 0 4.075-3.307 7.381-7.381 7.381-4.079 0-7.381-3.307-7.381-7.381 0-4.079 3.302-7.381 7.381-7.381zM534.144 340.164c0 43.051 34.901 77.952 77.952 77.952s77.952-34.901 77.952-77.952c0-43.055-34.901-77.952-77.952-77.952s-77.952 34.897-77.952 77.952zM498.859 199.023c0 62.537 50.697 113.237 113.237 113.237s113.237-50.701 113.237-113.237v-11.763c0-23.565-19.102-42.667-42.667-42.667s-42.667 19.102-42.667 42.667v11.763c0 15.411-12.493 27.904-27.904 27.904s-27.904-12.493-27.904-27.904v-11.763c0-23.565-19.102-42.667-42.667-42.667s-42.667 19.102-42.667 42.667v11.763z" />
<glyph unicode="&#xe93f;" glyph-name="calendar-monday" data-tags="calendar-monday" d="M554.667 298.667c0 58.91 47.757 106.667 106.667 106.667s106.667-47.757 106.667-106.667v-42.667c0-58.91-47.757-106.667-106.667-106.667s-106.667 47.757-106.667 106.667v42.667zM661.333 320c-11.78 0-21.333-9.553-21.333-21.333v-42.667c0-11.78 9.553-21.333 21.333-21.333s21.333 9.553 21.333 21.333v42.667c0 11.78-9.553 21.333-21.333 21.333zM128 533.333c0 23.564 19.103 42.667 42.667 42.667h682.667c23.565 0 42.667-19.103 42.667-42.667v-384c0-70.694-57.306-128-128-128h-512c-70.692 0-128 57.306-128 128v384zM213.333 490.667v-341.333c0-23.565 19.103-42.667 42.667-42.667h512c23.565 0 42.667 19.102 42.667 42.667v341.333h-597.333zM128 746.667c0 23.564 19.103 42.667 42.667 42.667h75.852c23.564 0 42.667-19.103 42.667-42.667s-19.103-42.667-42.667-42.667h-33.185v-128h597.333v128h-33.186c-23.565 0-42.667 19.103-42.667 42.667s19.102 42.667 42.667 42.667h75.853c23.565 0 42.667-19.103 42.667-42.667v-213.333c0-23.565-19.102-42.667-42.667-42.667h-682.667c-23.564 0-42.667 19.102-42.667 42.667v213.333zM431.407 746.667c0 23.564 19.102 42.667 42.667 42.667h75.853c23.565 0 42.667-19.103 42.667-42.667s-19.102-42.667-42.667-42.667h-75.853c-23.565 0-42.667 19.103-42.667 42.667zM341.333 832c23.564 0 42.667-19.103 42.667-42.667v-85.333c0-23.564-19.103-42.667-42.667-42.667s-42.667 19.103-42.667 42.667v85.333c0 23.564 19.103 42.667 42.667 42.667zM682.667 832c23.565 0 42.667-19.103 42.667-42.667v-85.333c0-23.564-19.102-42.667-42.667-42.667s-42.667 19.103-42.667 42.667v85.333c0 23.564 19.102 42.667 42.667 42.667zM279.588 400.828c14.455 7.228 31.752 5.666 44.681-4.032l59.733-44.8 59.735 44.8c12.928 9.698 30.225 11.26 44.681 4.032s23.586-22.003 23.586-38.165v-170.667c0-23.565-19.106-42.667-42.667-42.667-23.565 0-42.667 19.102-42.667 42.667v85.333l-17.068-12.8c-15.17-11.375-36.029-11.375-51.2 0l-17.067 12.8v-85.333c0-23.565-19.102-42.667-42.667-42.667s-42.667 19.102-42.667 42.667v170.667c0 16.162 9.131 30.938 23.586 38.165z" />
<glyph unicode="&#xe940;" glyph-name="calendar" data-tags="calendar" d="M128 576c0 23.564 19.103 42.667 42.667 42.667h682.667c23.565 0 42.667-19.103 42.667-42.667v-384c0-70.694-57.306-128-128-128h-512c-70.692 0-128 57.306-128 128v384zM213.333 533.333v-341.333c0-23.565 19.103-42.667 42.667-42.667h512c23.565 0 42.667 19.102 42.667 42.667v341.333h-597.333zM128 789.333c0 23.564 19.103 42.667 42.667 42.667h75.852c23.564 0 42.667-19.103 42.667-42.667s-19.103-42.667-42.667-42.667h-33.185v-128h597.333v128h-33.186c-23.565 0-42.667 19.103-42.667 42.667s19.102 42.667 42.667 42.667h75.853c23.565 0 42.667-19.103 42.667-42.667v-213.333c0-23.564-19.102-42.667-42.667-42.667h-682.667c-23.564 0-42.667 19.103-42.667 42.667v213.333zM431.407 789.333c0 23.564 19.102 42.667 42.667 42.667h75.853c23.565 0 42.667-19.103 42.667-42.667s-19.102-42.667-42.667-42.667h-75.853c-23.565 0-42.667 19.103-42.667 42.667zM341.333 874.667c23.564 0 42.667-19.103 42.667-42.667v-85.333c0-23.564-19.103-42.667-42.667-42.667s-42.667 19.103-42.667 42.667v85.333c0 23.564 19.103 42.667 42.667 42.667zM682.667 874.667c23.565 0 42.667-19.103 42.667-42.667v-85.333c0-23.564-19.102-42.667-42.667-42.667s-42.667 19.103-42.667 42.667v85.333c0 23.564 19.102 42.667 42.667 42.667z" />
<glyph unicode="&#xe941;" glyph-name="camera-off" data-tags="camera-off" d="M384 746.667c0 23.564 19.103 42.667 42.667 42.667h170.667c12.962 0 25.22-5.892 33.318-16.013l72.521-90.654h107.494c70.694 0 128-57.308 128-128v-298.667c0-23.565-19.102-42.667-42.667-42.667s-42.667 19.102-42.667 42.667v298.667c0 23.564-19.102 42.667-42.667 42.667h-128c-12.962 0-25.22 5.892-33.318 16.013l-72.521 90.653h-150.161c-23.564 0-42.667 19.103-42.667 42.667zM128 597.333c23.564 0 42.667-19.103 42.667-42.667v-298.667c0-23.565 19.103-42.667 42.667-42.667h362.667c23.565 0 42.667-19.102 42.667-42.667s-19.102-42.667-42.667-42.667h-362.667c-70.692 0-128 57.306-128 128v298.667c0 23.564 19.103 42.667 42.667 42.667zM514.428 561.566c7.838 22.223 32.205 33.884 54.43 26.047 23.351-8.236 45.244-21.693 63.821-40.269s32.034-40.468 40.269-63.824c7.838-22.221-3.823-46.588-26.044-54.426-22.225-7.838-46.592 3.823-54.43 26.044-4.087 11.588-10.765 22.494-20.134 31.868-9.37 9.37-20.275 16.047-31.863 20.13-22.221 7.838-33.886 32.207-26.048 54.43zM379.76 399.603c20.401 11.793 46.499 4.813 58.29-15.586 3.635-6.285 8.158-12.241 13.611-17.694s11.405-9.975 17.69-13.606c20.403-11.793 27.383-37.892 15.59-58.291-11.793-20.403-37.892-27.383-58.292-15.59-12.67 7.326-24.565 16.388-35.328 27.149-10.763 10.765-19.825 22.66-27.148 35.328-11.792 20.403-4.813 46.498 15.589 58.291zM98.656 862.974c17.106 16.206 44.111 15.476 60.318-1.63l768.002-810.668c16.205-17.105 15.475-44.109-1.634-60.318-17.105-16.205-44.109-15.475-60.318 1.634l-767.998 810.665c-16.206 17.107-15.476 44.112 1.63 60.318z" />
<glyph unicode="&#xe942;" glyph-name="camera" data-tags="camera" d="M393.35 773.321c8.097 10.121 20.356 16.013 33.317 16.013h170.667c12.962 0 25.22-5.892 33.318-16.013l72.521-90.654h107.494c70.694 0 128-57.308 128-128v-298.667c0-70.694-57.306-128-128-128h-597.333c-70.692 0-128 57.306-128 128v298.667c0 70.692 57.308 128 128 128h107.493l72.523 90.654zM447.172 704l-72.522-90.653c-8.097-10.121-20.356-16.013-33.317-16.013h-128c-23.564 0-42.667-19.103-42.667-42.667v-298.667c0-23.565 19.103-42.667 42.667-42.667h597.333c23.565 0 42.667 19.102 42.667 42.667v298.667c0 23.564-19.102 42.667-42.667 42.667h-128c-12.962 0-25.22 5.892-33.318 16.013l-72.521 90.653h-129.655zM512 512c-47.13 0-85.333-38.204-85.333-85.333s38.204-85.333 85.333-85.333c47.13 0 85.333 38.204 85.333 85.333s-38.204 85.333-85.333 85.333zM341.333 426.667c0 94.255 76.41 170.667 170.667 170.667 94.255 0 170.667-76.412 170.667-170.667s-76.412-170.667-170.667-170.667c-94.257 0-170.667 76.412-170.667 170.667z" />
<glyph unicode="&#xe943;" glyph-name="cast" data-tags="cast" d="M85.333 661.333c0 70.692 57.308 128 128 128h597.333c70.694 0 128-57.308 128-128v-426.667c0-70.694-57.306-128-128-128h-213.333c-23.565 0-42.667 19.102-42.667 42.667s19.102 42.667 42.667 42.667h213.333c23.565 0 42.667 19.102 42.667 42.667v426.667c0 23.564-19.102 42.667-42.667 42.667h-597.333c-23.564 0-42.667-19.103-42.667-42.667v-64c0-23.564-19.103-42.667-42.667-42.667s-42.667 19.103-42.667 42.667v64zM128 320c0 23.565 19.103 42.667 42.667 42.667 94.257 0 170.667-76.412 170.667-170.667 0-23.565-19.103-42.667-42.667-42.667s-42.667 19.102-42.667 42.667c0 47.13-38.205 85.333-85.333 85.333-23.564 0-42.667 19.102-42.667 42.667zM128 448c0 23.565 19.103 42.667 42.667 42.667 164.949 0 298.667-133.717 298.667-298.667 0-23.565-19.102-42.667-42.667-42.667s-42.667 19.102-42.667 42.667c0 117.82-95.513 213.333-213.333 213.333-23.564 0-42.667 19.102-42.667 42.667zM170.667 234.667c23.564 0 42.667-19.102 42.667-42.667v-0.427c0-23.565-19.103-42.667-42.667-42.667s-42.667 19.102-42.667 42.667v0.427c0 23.565 19.103 42.667 42.667 42.667z" />
<glyph unicode="&#xe944;" glyph-name="check-circle-1" data-tags="check-circle-1" d="M704.887 571.326c16.661-16.663 16.661-43.676 0-60.342l-200.128-200.124c-16.661-16.666-43.678-16.666-60.339 0l-90.59 90.59c-16.662 16.661-16.663 43.678 0 60.339s43.677 16.661 60.34 0l60.42-60.42 169.958 169.957c16.661 16.662 43.678 16.662 60.339 0zM85.333 448c0 235.642 191.025 426.667 426.667 426.667 235.639 0 426.667-191.025 426.667-426.667 0-235.639-191.027-426.667-426.667-426.667-235.642 0-426.667 191.027-426.667 426.667zM512 789.333c-188.513 0-341.333-152.82-341.333-341.333s152.82-341.333 341.333-341.333c188.514 0 341.333 152.819 341.333 341.333s-152.819 341.333-341.333 341.333z" />
<glyph unicode="&#xe945;" glyph-name="check-circle-2" data-tags="check-circle-2" d="M801.792 677.279c16.666-16.662 16.666-43.677 0-60.34l-266.833-266.838c-16.661-16.661-43.678-16.661-60.339 0l-120.79 120.789c-16.663 16.661-16.663 43.678 0 60.339 16.663 16.663 43.677 16.663 60.34 0l90.62-90.615 236.663 236.665c16.666 16.663 43.678 16.663 60.339 0zM469.577 661.333c-117.994 0-213.577-95.55-213.577-213.333 0-117.781 95.583-213.333 213.577-213.333 74.027 0 139.268 37.581 177.643 94.861 13.116 19.575 39.62 24.811 59.196 11.695s24.815-39.616 11.699-59.196c-53.559-79.932-144.883-132.693-248.538-132.693-165.046 0-298.91 133.679-298.91 298.667s133.864 298.667 298.91 298.667c23.561 0 42.667-19.103 42.667-42.667s-19.106-42.667-42.667-42.667z" />
<glyph unicode="&#xe946;" glyph-name="check-square-1" data-tags="check-square-1" d="M704.887 571.321c16.661-16.662 16.661-43.679 0-60.34l-200.128-200.128c-16.661-16.661-43.678-16.661-60.339 0l-90.591 90.594c-16.663 16.661-16.663 43.674 0 60.339 16.662 16.661 43.677 16.661 60.34 0l60.421-60.42 169.958 169.955c16.661 16.663 43.678 16.663 60.339 0zM85.333 704c0 94.257 76.41 170.667 170.667 170.667h512c94.255 0 170.667-76.41 170.667-170.667v-512c0-94.255-76.412-170.667-170.667-170.667h-512c-94.257 0-170.667 76.412-170.667 170.667v512zM256 789.333c-47.128 0-85.333-38.205-85.333-85.333v-512c0-47.13 38.205-85.333 85.333-85.333h512c47.13 0 85.333 38.204 85.333 85.333v512c0 47.128-38.204 85.333-85.333 85.333h-512z" />
<glyph unicode="&#xe947;" glyph-name="check-square-2" data-tags="check-square-2" d="M801.792 677.279c16.666-16.662 16.666-43.677 0-60.34l-266.833-266.838c-16.661-16.661-43.678-16.661-60.339 0l-120.79 120.789c-16.663 16.661-16.663 43.678 0 60.339 16.663 16.663 43.677 16.663 60.34 0l90.62-90.615 236.663 236.665c16.666 16.663 43.678 16.663 60.339 0zM341.333 618.667c-23.564 0-42.667-19.103-42.667-42.667v-256c0-23.565 19.103-42.667 42.667-42.667h256c23.565 0 42.667 19.102 42.667 42.667v21.333c0 23.565 19.102 42.667 42.667 42.667s42.667-19.102 42.667-42.667v-21.333c0-70.694-57.306-128-128-128h-256c-70.692 0-128 57.306-128 128v256c0 70.692 57.308 128 128 128h213.333c23.565 0 42.667-19.103 42.667-42.667s-19.102-42.667-42.667-42.667h-213.333z" />
<glyph unicode="&#xe948;" glyph-name="check" data-tags="check" d="M720.785 606.17c16.661-16.663 16.661-43.677 0-60.34l-269.811-269.811c-16.666-16.666-43.679-16.666-60.341 0l-122.136 122.133c-16.662 16.661-16.662 43.678 0 60.339s43.677 16.661 60.34 0l91.965-91.964 239.644 239.642c16.661 16.662 43.678 16.662 60.339 0z" />
<glyph unicode="&#xe949;" glyph-name="chevron-bottom" data-tags="chevron-bottom" d="M259.49 554.251c-15.085-18.103-12.64-45.007 5.463-60.090l230.399-192c15.821-13.188 38.805-13.188 54.63 0l230.396 192c18.103 15.083 20.548 41.987 5.466 60.090-15.087 18.102-41.993 20.548-60.092 5.463l-203.085-169.237-203.085 169.237c-18.103 15.086-45.007 12.64-60.092-5.463z" />
<glyph unicode="&#xe94a;" glyph-name="chevron-left" data-tags="chevron-left" d="M645.982 694.11c-18.103 15.085-45.009 12.64-60.096-5.463l-191.997-230.398c-13.186-15.825-13.186-38.805 0-54.63l191.997-230.396c15.087-18.103 41.993-20.548 60.096-5.466 18.099 15.087 20.548 41.993 5.461 60.092l-169.237 203.085 169.237 203.084c15.087 18.103 12.638 45.007-5.461 60.092z" />
<glyph unicode="&#xe94b;" glyph-name="chevron-right" data-tags="chevron-right" d="M399.352 694.11c18.102 15.085 45.008 12.64 60.091-5.463l192-230.398c13.184-15.825 13.184-38.805 0-54.63l-192-230.396c-15.083-18.103-41.989-20.548-60.091-5.466-18.103 15.087-20.548 41.993-5.463 60.092l169.238 203.085-169.238 203.084c-15.085 18.103-12.64 45.007 5.463 60.092z" />
<glyph unicode="&#xe94c;" glyph-name="chevron-up" data-tags="chevron-up" d="M785.843 307.618c15.083 18.103 12.638 45.009-5.466 60.092l-230.396 192c-15.825 13.186-38.81 13.186-54.63 0l-230.399-192c-18.103-15.083-20.548-41.988-5.463-60.092s41.99-20.548 60.092-5.461l203.085 169.237 203.085-169.237c18.099-15.087 45.005-12.642 60.092 5.461z" />
<glyph unicode="&#xe94d;" glyph-name="chevrons-down" data-tags="chevrons-down" d="M792.243 453.982c15.083-18.103 12.638-45.009-5.466-60.092l-230.396-192c-15.825-13.188-38.81-13.188-54.63 0l-230.399 192c-18.103 15.083-20.548 41.988-5.463 60.092 15.086 18.099 41.99 20.548 60.092 5.461l203.085-169.237 203.081 169.237c18.103 15.087 45.009 12.638 60.096-5.461zM792.243 667.313c15.083-18.103 12.638-45.007-5.466-60.092l-230.396-191.998c-15.825-13.188-38.81-13.188-54.63 0l-230.399 191.998c-18.103 15.086-20.548 41.99-5.463 60.092s41.99 20.548 60.092 5.463l203.085-169.237 203.081 169.237c18.103 15.085 45.009 12.64 60.096-5.463z" />
<glyph unicode="&#xe94e;" glyph-name="chevrons-left" data-tags="chevrons-left" d="M545.711 700.511c-18.103 15.085-45.005 12.64-60.092-5.463l-191.998-230.399c-13.186-15.821-13.186-38.805 0-54.626l191.998-230.4c15.087-18.103 41.988-20.548 60.092-5.461 18.103 15.083 20.548 41.988 5.466 60.092l-169.238 203.081 169.238 203.085c15.083 18.103 12.638 45.007-5.466 60.092zM759.044 700.511c-18.103 15.085-45.005 12.64-60.092-5.463l-192-230.399c-13.184-15.821-13.184-38.805 0-54.626l192-230.4c15.087-18.103 41.988-20.548 60.092-5.461 18.103 15.083 20.548 41.988 5.466 60.092l-169.237 203.081 169.237 203.085c15.083 18.103 12.638 45.007-5.466 60.092z" />
<glyph unicode="&#xe94f;" glyph-name="chevrons-right" data-tags="chevrons-right" d="M512.418 700.511c18.103 15.085 45.005 12.64 60.092-5.463l192-230.399c13.184-15.821 13.184-38.805 0-54.626l-192-230.4c-15.087-18.103-41.988-20.548-60.092-5.461-18.103 15.083-20.548 41.988-5.461 60.092l169.233 203.081-169.233 203.085c-15.087 18.103-12.642 45.007 5.461 60.092zM299.085 700.511c18.103 15.085 45.007 12.64 60.092-5.463l192-230.399c13.184-15.821 13.184-38.805 0-54.626l-192-230.4c-15.085-18.103-41.99-20.548-60.092-5.461-18.102 15.083-20.548 41.988-5.463 60.092l169.234 203.081-169.234 203.085c-15.086 18.103-12.64 45.007 5.463 60.092z" />
<glyph unicode="&#xe950;" glyph-name="chevrons-up" data-tags="chevrons-up" d="M792.243 442.018c15.083 18.103 12.638 45.009-5.466 60.092l-230.396 192.001c-15.825 13.185-38.81 13.185-54.63 0l-230.399-192.001c-18.103-15.083-20.548-41.988-5.463-60.092 15.086-18.099 41.99-20.548 60.092-5.461l203.085 169.237 203.081-169.237c18.103-15.087 45.009-12.638 60.096 5.461zM792.243 228.685c15.083 18.103 12.638 45.009-5.466 60.092l-230.396 192c-15.825 13.188-38.81 13.188-54.63 0l-230.399-192c-18.103-15.083-20.548-41.988-5.463-60.092 15.086-18.099 41.99-20.548 60.092-5.461l203.085 169.237 203.081-169.237c18.103-15.087 45.009-12.638 60.096 5.461z" />
<glyph unicode="&#xe951;" glyph-name="circle" data-tags="circle" d="M128 448c0 212.077 171.923 384 384 384 212.079 0 384-171.923 384-384 0-212.079-171.921-384-384-384-212.077 0-384 171.921-384 384zM512 746.667c-164.949 0-298.667-133.718-298.667-298.667s133.718-298.667 298.667-298.667c164.949 0 298.667 133.717 298.667 298.667s-133.717 298.667-298.667 298.667z" />
<glyph unicode="&#xe952;" glyph-name="clipboard" data-tags="clipboard" d="M341.333 789.333c0 47.128 38.205 85.333 85.333 85.333h170.667c47.13 0 85.333-38.205 85.333-85.333h79.236c50.496 0 91.43-40.934 91.43-91.429v-585.141c0-50.496-40.934-91.43-91.43-91.43h-499.808c-50.495 0-91.429 40.934-91.429 91.43v585.141c0 50.495 40.934 91.429 91.429 91.429h79.238zM341.333 704h-79.238c-3.366 0-6.095-2.729-6.095-6.095v-585.141c0-3.366 2.729-6.097 6.095-6.097h499.808c3.366 0 6.097 2.731 6.097 6.097v585.141c0 3.366-2.731 6.095-6.097 6.095h-79.236c0-47.128-38.204-85.333-85.333-85.333h-170.667c-47.128 0-85.333 38.205-85.333 85.333zM597.333 704h-170.667v85.333h170.667v-85.333z" />
<glyph unicode="&#xe953;" glyph-name="clock-1" data-tags="clock-1" d="M85.333 448c0 235.642 191.025 426.667 426.667 426.667 235.639 0 426.667-191.025 426.667-426.667 0-235.639-191.027-426.667-426.667-426.667-235.642 0-426.667 191.027-426.667 426.667zM512 789.333c-188.513 0-341.333-152.82-341.333-341.333s152.82-341.333 341.333-341.333c188.514 0 341.333 152.819 341.333 341.333s-152.819 341.333-341.333 341.333zM512 725.333c23.565 0 42.667-19.103 42.667-42.667v-234.667c0-23.565-19.102-42.667-42.667-42.667s-42.667 19.102-42.667 42.667v234.667c0 23.564 19.102 42.667 42.667 42.667z" />
<glyph unicode="&#xe954;" glyph-name="clock-2" data-tags="clock-2" d="M85.333 448c0 235.642 191.025 426.667 426.667 426.667 235.639 0 426.667-191.025 426.667-426.667 0-235.639-191.027-426.667-426.667-426.667-235.642 0-426.667 191.027-426.667 426.667zM512 789.333c-188.513 0-341.333-152.82-341.333-341.333s152.82-341.333 341.333-341.333c188.514 0 341.333 152.819 341.333 341.333s-152.819 341.333-341.333 341.333zM512 405.333c-23.565 0-42.667 19.102-42.667 42.667v170.667c0 23.564 19.102 42.667 42.667 42.667s42.667-19.102 42.667-42.667v-170.667c0-23.565-19.102-42.667-42.667-42.667zM469.333 448c0 23.565 19.102 42.667 42.667 42.667h213.333c23.565 0 42.667-19.102 42.667-42.667s-19.102-42.667-42.667-42.667h-213.333c-23.565 0-42.667 19.102-42.667 42.667z" />
<glyph unicode="&#xe955;" glyph-name="clock-3" data-tags="clock-3" d="M85.333 448c0 235.642 191.025 426.667 426.667 426.667 235.639 0 426.667-191.025 426.667-426.667 0-235.639-191.027-426.667-426.667-426.667-235.642 0-426.667 191.027-426.667 426.667zM512 789.333c-188.513 0-341.333-152.82-341.333-341.333s152.82-341.333 341.333-341.333c188.514 0 341.333 152.819 341.333 341.333s-152.819 341.333-341.333 341.333zM512 405.333c-23.565 0-42.667 19.102-42.667 42.667v170.667c0 23.564 19.102 42.667 42.667 42.667s42.667-19.102 42.667-42.667v-170.667c0-23.565-19.102-42.667-42.667-42.667zM469.333 234.667v213.333c0 23.565 19.102 42.667 42.667 42.667s42.667-19.102 42.667-42.667v-213.333c0-23.565-19.102-42.667-42.667-42.667s-42.667 19.102-42.667 42.667z" />
<glyph unicode="&#xe956;" glyph-name="clock-4" data-tags="clock-4" d="M85.333 448c0 235.642 191.025 426.667 426.667 426.667 235.639 0 426.667-191.025 426.667-426.667 0-235.639-191.027-426.667-426.667-426.667-235.642 0-426.667 191.027-426.667 426.667zM512 789.333c-188.513 0-341.333-152.82-341.333-341.333s152.82-341.333 341.333-341.333c188.514 0 341.333 152.819 341.333 341.333s-152.819 341.333-341.333 341.333zM512 661.333c23.565 0 42.667-19.103 42.667-42.667v-170.667c0-23.565-19.102-42.667-42.667-42.667h-213.333c-23.564 0-42.667 19.102-42.667 42.667s19.103 42.667 42.667 42.667h170.667v128c0 23.564 19.102 42.667 42.667 42.667z" />
<glyph unicode="&#xe957;" glyph-name="clock-5" data-tags="clock-5" d="M85.333 448c0 235.642 191.025 426.667 426.667 426.667 235.639 0 426.667-191.025 426.667-426.667 0-235.639-191.027-426.667-426.667-426.667-235.642 0-426.667 191.027-426.667 426.667zM512 789.333c-188.513 0-341.333-152.82-341.333-341.333s152.82-341.333 341.333-341.333c188.514 0 341.333 152.819 341.333 341.333s-152.819 341.333-341.333 341.333zM311.163 648.837c16.663 16.662 43.677 16.662 60.34 0l97.83-97.83v67.66c0 23.564 19.102 42.667 42.667 42.667s42.667-19.103 42.667-42.667v-170.667c0-17.259-10.394-32.815-26.338-39.42s-34.295-2.953-46.498 9.25l-170.667 170.666c-16.662 16.663-16.662 43.677 0 60.34z" />
<glyph unicode="&#xe958;" glyph-name="clock-6" data-tags="clock-6" d="M85.333 448c0 235.642 191.025 426.667 426.667 426.667 235.639 0 426.667-191.025 426.667-426.667 0-235.639-191.027-426.667-426.667-426.667-235.642 0-426.667 191.027-426.667 426.667zM512 789.333c-188.513 0-341.333-152.82-341.333-341.333s152.82-341.333 341.333-341.333c188.514 0 341.333 152.819 341.333 341.333s-152.819 341.333-341.333 341.333zM512 661.333c23.565 0 42.667-19.103 42.667-42.667v-67.66l97.83 97.83c16.661 16.662 43.678 16.662 60.339 0s16.661-43.677 0-60.34l-170.667-170.666c-12.203-12.203-30.554-15.855-46.498-9.25s-26.338 22.161-26.338 39.42v170.667c0 23.564 19.102 42.667 42.667 42.667z" />
<glyph unicode="&#xe959;" glyph-name="clock-7" data-tags="clock-7" d="M85.333 448c0 235.642 191.025 426.667 426.667 426.667 235.639 0 426.667-191.025 426.667-426.667 0-235.639-191.027-426.667-426.667-426.667-235.642 0-426.667 191.027-426.667 426.667zM512 789.333c-188.513 0-341.333-152.82-341.333-341.333s152.82-341.333 341.333-341.333c188.514 0 341.333 152.819 341.333 341.333s-152.819 341.333-341.333 341.333zM512 661.333c23.565 0 42.667-19.103 42.667-42.667v-152.994l158.17-158.17c16.661-16.661 16.661-43.678 0-60.339s-43.678-16.661-60.339 0l-170.667 170.667c-8 8-12.497 18.854-12.497 30.17v170.667c0 23.564 19.102 42.667 42.667 42.667z" />
<glyph unicode="&#xe95a;" glyph-name="clock-8" data-tags="clock-8" d="M85.333 448c0 235.642 191.025 426.667 426.667 426.667 235.639 0 426.667-191.025 426.667-426.667 0-235.639-191.027-426.667-426.667-426.667-235.642 0-426.667 191.027-426.667 426.667zM512 789.333c-188.513 0-341.333-152.82-341.333-341.333s152.82-341.333 341.333-341.333c188.514 0 341.333 152.819 341.333 341.333s-152.819 341.333-341.333 341.333zM512 661.333c23.565 0 42.667-19.103 42.667-42.667v-170.667c0-11.315-4.497-22.17-12.497-30.17l-170.666-170.667c-16.663-16.661-43.677-16.661-60.34 0s-16.662 43.678 0 60.339l158.17 158.17v152.994c0 23.564 19.102 42.667 42.667 42.667z" />
<glyph unicode="&#xe95b;" glyph-name="cloud-off" data-tags="cloud-off" d="M497.788 607.022c37.773 33.806 87.548 54.311 142.212 54.311 117.82 0 213.333-95.513 213.333-213.333 0-48.213-15.932-89.331-42.739-122.526-14.805-18.334-11.947-45.197 6.383-60.002 18.334-14.805 45.197-11.947 60.002 6.387 38.716 47.936 61.687 107.861 61.687 176.141 0 164.949-133.717 298.667-298.667 298.667-76.467 0-146.308-28.792-199.121-76.060-17.559-15.715-19.053-42.689-3.337-60.247 15.714-17.559 42.688-19.053 60.245-3.337zM170.667 384c0 58.91 47.756 106.667 106.667 106.667 23.564 0 42.667 19.102 42.667 42.667s-19.103 42.667-42.667 42.667c-106.039 0-192-85.961-192-192s85.961-192 192-192h234.667c23.565 0 42.667 19.102 42.667 42.667s-19.102 42.667-42.667 42.667h-234.667c-58.91 0-106.667 47.757-106.667 106.667zM98.656 862.974c17.106 16.206 44.111 15.476 60.318-1.63l768.002-810.668c16.205-17.105 15.475-44.109-1.634-60.318-17.105-16.205-44.109-15.475-60.318 1.634l-767.998 810.665c-16.206 17.107-15.476 44.112 1.63 60.318z" />
<glyph unicode="&#xe95c;" glyph-name="cloud-rain-heavy" data-tags="cloud-rain-heavy" d="M768 277.333c23.565 0 42.667-19.102 42.667-42.667v-170.667c0-23.565-19.102-42.667-42.667-42.667s-42.667 19.102-42.667 42.667v170.667c0 23.565 19.102 42.667 42.667 42.667zM640 149.333c23.565 0 42.667-19.102 42.667-42.667v-42.667c0-23.565-19.102-42.667-42.667-42.667s-42.667 19.102-42.667 42.667v42.667c0 23.565 19.102 42.667 42.667 42.667zM512 320c23.565 0 42.667-19.102 42.667-42.667v-170.667c0-23.565-19.102-42.667-42.667-42.667s-42.667 19.102-42.667 42.667v170.667c0 23.565 19.102 42.667 42.667 42.667zM384 149.333c23.564 0 42.667-19.102 42.667-42.667v-42.667c0-23.565-19.103-42.667-42.667-42.667s-42.667 19.102-42.667 42.667v42.667c0 23.565 19.103 42.667 42.667 42.667zM640 789.333c117.82 0 213.333-95.513 213.333-213.333 0-19.338-2.56-37.39-7.249-54.135-12.284-43.87-45.367-72.734-95.731-91.392-33.57-12.442-72.606-19.371-112.943-22.673l-64.9-2.466h-295.177c-58.91 0-106.667 47.757-106.667 106.667s47.756 106.667 106.667 106.667c8.262 0 16.253-0.931 23.895-2.677 12.868-2.94 25.519-11.686 40.397-26.688-0.194-4.412-0.292-8.847-0.292-13.302 0-23.564 19.103-42.667 42.667-42.667s42.667 19.103 42.667 42.667c0 8.118 0.452 16.114 1.327 23.967 11.883 106.519 102.298 189.366 212.006 189.366zM682.667 326.95c33.348 4.659 66.517 12.083 97.331 23.501 66.082 24.486 126.161 69.47 148.258 148.407 6.831 24.388 10.411 50.188 10.411 77.141 0 164.949-133.717 298.667-298.667 298.667-127.403 0-236.139-79.746-279.068-192.059-12.137 7.232-25.664 13.137-40.698 16.572-13.834 3.16-28.2 4.82-42.9 4.82-106.039 0-192-85.961-192-192s85.961-192 192-192h64v-85.333c0-23.565 19.103-42.667 42.667-42.667s42.667 19.102 42.667 42.667v85.333h146.654c7.872 0 15.889 0.090 24.013 0.29v-85.623c0-23.565 19.102-42.667 42.667-42.667s42.667 19.102 42.667 42.667v92.284zM256 277.333c23.564 0 42.667-19.102 42.667-42.667v-170.667c0-23.565-19.103-42.667-42.667-42.667s-42.667 19.102-42.667 42.667v170.667c0 23.565 19.103 42.667 42.667 42.667z" />
<glyph unicode="&#xe95d;" glyph-name="cloud-rain-light" data-tags="cloud-rain-light" d="M768 277.333c23.565 0 42.667-19.102 42.667-42.667v-42.667c0-23.565-19.102-42.667-42.667-42.667s-42.667 19.102-42.667 42.667v42.667c0 23.565 19.102 42.667 42.667 42.667zM640 149.333c23.565 0 42.667-19.102 42.667-42.667v-42.667c0-23.565-19.102-42.667-42.667-42.667s-42.667 19.102-42.667 42.667v42.667c0 23.565 19.102 42.667 42.667 42.667zM512 277.333c23.565 0 42.667-19.102 42.667-42.667v-42.667c0-23.565-19.102-42.667-42.667-42.667s-42.667 19.102-42.667 42.667v42.667c0 23.565 19.102 42.667 42.667 42.667zM384 149.333c23.564 0 42.667-19.102 42.667-42.667v-42.667c0-23.565-19.103-42.667-42.667-42.667s-42.667 19.102-42.667 42.667v42.667c0 23.565 19.103 42.667 42.667 42.667zM640 789.333c117.82 0 213.333-95.513 213.333-213.333 0-19.338-2.56-37.39-7.249-54.135-12.284-43.87-45.367-72.734-95.731-91.392-33.404-12.378-72.213-19.302-112.333-22.622l-254.233-2.517h-106.454c-58.91 0-106.667 47.757-106.667 106.667s47.756 106.667 106.667 106.667c8.262 0 16.253-0.931 23.895-2.677 12.868-2.94 25.519-11.686 40.397-26.688-0.194-4.412-0.292-8.847-0.292-13.302 0-23.564 19.103-42.667 42.667-42.667s42.667 19.103 42.667 42.667c0 8.118 0.452 16.114 1.327 23.967 11.883 106.519 102.298 189.366 212.006 189.366zM682.667 326.95c33.348 4.659 66.517 12.083 97.331 23.501 66.082 24.486 126.161 69.47 148.258 148.407 6.831 24.388 10.411 50.188 10.411 77.141 0 164.949-133.717 298.667-298.667 298.667-127.403 0-236.139-79.746-279.068-192.059-12.137 7.232-25.664 13.137-40.698 16.572-13.834 3.16-28.2 4.82-42.9 4.82-106.039 0-192-85.961-192-192s85.961-192 192-192h64c0-23.565 19.103-42.667 42.667-42.667s42.667 19.102 42.667 42.667h146.654c7.872 0 15.889 0.090 24.013 0.29v-0.29c0-23.565 19.102-42.667 42.667-42.667s42.667 19.102 42.667 42.667v6.95zM256 277.333c23.564 0 42.667-19.102 42.667-42.667v-42.667c0-23.565-19.103-42.667-42.667-42.667s-42.667 19.102-42.667 42.667v42.667c0 23.565 19.103 42.667 42.667 42.667z" />
<glyph unicode="&#xe95e;" glyph-name="cloud-storm" data-tags="cloud-storm" d="M725.333 149.333c23.565 0 42.667-19.102 42.667-42.667v-42.667c0-23.565-19.102-42.667-42.667-42.667s-42.667 19.102-42.667 42.667v42.667c0 23.565 19.102 42.667 42.667 42.667zM426.667 277.333c23.565 0 42.667-19.102 42.667-42.667v-42.667c0-23.565-19.102-42.667-42.667-42.667s-42.667 19.102-42.667 42.667v42.667c0 23.565 19.103 42.667 42.667 42.667zM298.667 149.333c23.564 0 42.667-19.102 42.667-42.667v-42.667c0-23.565-19.103-42.667-42.667-42.667s-42.667 19.102-42.667 42.667v42.667c0 23.565 19.103 42.667 42.667 42.667zM170.667 277.333c23.564 0 42.667-19.102 42.667-42.667v-42.667c0-23.565-19.103-42.667-42.667-42.667s-42.667 19.102-42.667 42.667v42.667c0 23.565 19.103 42.667 42.667 42.667zM640 789.333c117.82 0 213.333-95.513 213.333-213.333 0-19.338-2.56-37.39-7.249-54.135-12.284-43.87-45.367-72.734-95.731-91.392-10.88-4.032-22.332-7.484-34.214-10.423-0.653-0.141-1.293-0.299-1.933-0.469-43.601-10.534-92.873-14.246-140.885-14.246h-295.987c-58.91 0-106.667 47.757-106.667 106.667s47.756 106.667 106.667 106.667c8.262 0 16.253-0.931 23.895-2.677 12.868-2.94 25.519-11.686 40.397-26.688-0.194-4.412-0.292-8.847-0.292-13.302 0-23.564 19.103-42.667 42.667-42.667s42.667 19.103 42.667 42.667c0 8.118 0.452 16.114 1.327 23.967 11.883 106.519 102.298 189.366 212.006 189.366zM768 346.244c4.036 1.34 8.038 2.739 11.998 4.207 66.082 24.486 126.161 69.47 148.258 148.407 6.831 24.388 10.411 50.188 10.411 77.141 0 164.949-133.717 298.667-298.667 298.667-127.403 0-236.139-79.746-279.068-192.059-12.137 7.232-25.664 13.137-40.698 16.572-13.834 3.16-28.2 4.82-42.9 4.82-106.039 0-192-85.961-192-192 0-98.829 74.668-180.215 170.667-190.827v-1.173c0-23.565 19.103-42.667 42.667-42.667s42.667 19.102 42.667 42.667h169.165l53.265-79.898-81.933-81.933c-15.373-15.373-16.73-39.846-3.149-56.823l85.333-106.667c14.72-18.402 41.57-21.385 59.972-6.665s21.385 41.57 6.665 59.972l-61.478 76.847 79.663 79.663c14.383 14.383 16.614 36.915 5.333 53.837l-41.643 62.46c22.955 0.96 46.592 2.867 70.14 6.157v-6.95c0-23.565 19.102-42.667 42.667-42.667s42.667 19.102 42.667 42.667v26.244z" />
<glyph unicode="&#xe95f;" glyph-name="cloud" data-tags="cloud" d="M640 661.333c117.82 0 213.333-95.513 213.333-213.333 0-19.337-2.56-37.389-7.249-54.135-12.284-43.87-45.367-72.734-95.731-91.392-51.221-18.978-115.17-25.139-177.033-25.139h-295.987c-58.91 0-106.667 47.757-106.667 106.667s47.756 106.667 106.667 106.667c8.262 0 16.253-0.93 23.895-2.675 12.868-2.94 25.519-11.686 40.397-26.688-0.194-4.412-0.292-8.849-0.292-13.303 0-23.565 19.103-42.667 42.667-42.667s42.667 19.102 42.667 42.667c0 8.119 0.452 16.115 1.327 23.966 11.883 106.52 102.298 189.367 212.006 189.367zM360.932 554.607c-12.137 7.232-25.664 13.137-40.698 16.572-13.834 3.16-28.2 4.82-42.9 4.82-106.039 0-192-85.961-192-192s85.961-192 192-192h295.987c65.668 0 141.453 6.285 206.677 30.451 66.082 24.486 126.161 69.47 148.258 148.407 6.831 24.388 10.411 50.189 10.411 77.141 0 164.949-133.717 298.667-298.667 298.667-127.403 0-236.139-79.746-279.068-192.059z" />
<glyph unicode="&#xe960;" glyph-name="cloudy-moon" data-tags="cloudy-moon" d="M128 533.333c0 188.513 152.82 341.333 341.333 341.333 14.059 0 27.213-6.924 35.17-18.511s9.698-26.351 4.651-39.472c-26.756-69.57-36.847-127.916-34.569-174.604 1.152-23.536-16.998-43.547-40.533-44.695-23.537-1.149-43.548 17-44.697 40.536-2.141 43.865 4.040 92.087 18.415 143.962-111.649-27.562-194.437-128.387-194.437-248.549 0-12.459 0.887-24.687 2.595-36.625 3.337-23.326-12.868-44.941-36.195-48.277s-44.942 12.868-48.279 36.194c-2.278 15.932-3.454 32.196-3.454 48.708zM640 533.333c117.82 0 213.333-95.514 213.333-213.333 0-19.337-2.56-37.389-7.249-54.135-12.284-43.87-45.367-72.734-95.731-91.392-51.221-18.978-115.17-25.139-177.033-25.139h-295.987c-58.91 0-106.667 47.757-106.667 106.667s47.756 106.667 106.667 106.667c8.262 0 16.253-0.93 23.895-2.675 12.868-2.94 25.519-11.686 40.397-26.688-0.194-4.412-0.292-8.849-0.292-13.303 0-23.565 19.103-42.667 42.667-42.667s42.667 19.102 42.667 42.667c0 8.119 0.452 16.115 1.327 23.966 11.883 106.522 102.298 189.367 212.006 189.367zM360.932 426.607c-12.137 7.232-25.664 13.137-40.698 16.572-13.834 3.162-28.2 4.821-42.9 4.821-106.039 0-192-85.961-192-192s85.961-192 192-192h295.987c65.668 0 141.453 6.285 206.677 30.451 66.082 24.486 126.161 69.47 148.258 148.407 6.831 24.388 10.411 50.189 10.411 77.141 0 164.949-133.717 298.667-298.667 298.667-127.403 0-236.139-79.746-279.068-192.060z" />
<glyph unicode="&#xe961;" glyph-name="cloudy" data-tags="cloudy" d="M682.667 533.333c117.82 0 213.333-95.514 213.333-213.333 0-19.337-2.56-37.389-7.249-54.135-12.284-43.87-45.367-72.734-95.731-91.392-51.221-18.978-115.17-25.139-177.033-25.139h-295.987c-58.91 0-106.667 47.757-106.667 106.667s47.756 106.667 106.667 106.667c8.262 0 16.253-0.93 23.895-2.675 12.868-2.94 25.519-11.686 40.397-26.688-0.194-4.412-0.292-8.849-0.292-13.303 0-23.565 19.103-42.667 42.667-42.667s42.667 19.102 42.667 42.667c0 8.119 0.452 16.115 1.327 23.966 11.883 106.522 102.298 189.367 212.006 189.367zM403.599 426.607c-12.137 7.232-25.664 13.137-40.698 16.572-13.834 3.162-28.2 4.821-42.9 4.821-106.039 0-192-85.961-192-192s85.961-192 192-192h295.987c65.668 0 141.453 6.285 206.677 30.451 66.082 24.486 126.161 69.47 148.258 148.407 6.831 24.388 10.411 50.189 10.411 77.141 0 164.949-133.717 298.667-298.667 298.667-127.403 0-236.139-79.746-279.068-192.060zM597.333 746.667c-105.664 0-193.46-76.862-210.382-177.726-1.938-11.552-2.952-23.445-2.952-35.607 0-23.565-19.103-42.667-42.667-42.667s-42.667 19.102-42.667 42.667c0 7.104 0.249 14.157 0.739 21.148l-10.271 6.591c-15.911 9.475-34.489 14.928-54.468 14.928-58.91 0-106.667-47.757-106.667-106.667 0-23.565-19.103-42.667-42.667-42.667s-42.667 19.102-42.667 42.667c0 106.039 85.961 192 192 192 30.197 0 58.85-6.999 84.34-19.479 43.429 111.298 151.641 190.145 278.327 190.145 99.964 0 188.446-49.152 242.59-124.417 13.76-19.129 9.412-45.791-9.719-59.552-19.127-13.76-45.79-9.409-59.55 9.72-38.801 53.935-101.973 88.916-173.321 88.916z" />
<glyph unicode="&#xe962;" glyph-name="code-1" data-tags="code-1" d="M186.020 694.11c18.103 15.085 45.007 12.64 60.092-5.463l191.998-230.398c13.188-15.825 13.188-38.805 0-54.63l-191.998-230.396c-15.086-18.103-41.99-20.548-60.092-5.466-18.103 15.087-20.548 41.993-5.463 60.092l169.237 203.085-169.237 203.084c-15.085 18.103-12.64 45.007 5.463 60.092zM810.667 192c0-23.565-19.102-42.667-42.667-42.667h-341.333c-23.564 0-42.667 19.102-42.667 42.667s19.102 42.667 42.667 42.667h341.333c23.565 0 42.667-19.102 42.667-42.667z" />
<glyph unicode="&#xe963;" glyph-name="code" data-tags="code" d="M432.649 167.761c-18.104-15.087-45.008-12.642-60.094 5.461l-191.999 230.4c-13.185 15.821-13.185 38.805 0 54.626l191.999 230.4c15.086 18.103 41.99 20.548 60.094 5.463 18.099-15.086 20.548-41.99 5.461-60.092l-169.237-203.082 169.237-203.085c15.087-18.103 12.638-45.009-5.461-60.092zM612.685 694.11c18.103 15.085 45.009 12.64 60.092-5.463l192-230.398c13.184-15.825 13.184-38.805 0-54.63l-192-230.396c-15.083-18.103-41.988-20.548-60.092-5.466-18.103 15.087-20.548 41.993-5.461 60.092l169.237 203.085-169.237 203.084c-15.087 18.103-12.642 45.007 5.461 60.092z" />
<glyph unicode="&#xe964;" glyph-name="codepen" data-tags="codepen" d="M959.019 634.834c13.751-7.463 22.315-21.854 22.315-37.501v-298.667c0-14.443-7.305-27.904-19.413-35.772l-426.667-277.333c-13.12-8.529-29.854-9.19-43.605-1.728s-22.315 21.854-22.315 37.5v298.667c0 14.443 7.305 27.904 19.413 35.772l426.667 277.335c13.12 8.527 29.854 9.19 43.605 1.727zM554.667 296.845v-196.89l341.333 221.867v196.89l-341.333-221.867zM532.352-16.166c13.751 7.462 22.315 21.854 22.315 37.5v298.667c0 14.443-7.305 27.904-19.413 35.772l-426.667 277.335c-13.119 8.527-29.852 9.19-43.604 1.727s-22.316-21.854-22.316-37.501v-298.667c0-14.443 7.305-27.904 19.414-35.772l426.666-277.333c13.12-8.529 29.854-9.19 43.605-1.728zM128 321.822v196.89l341.333-221.867v-196.89l-341.333 221.867zM532.352 912.167c13.751-7.463 22.315-21.854 22.315-37.501v-298.667c0-14.442-7.305-27.903-19.413-35.773l-426.667-277.332c-13.119-8.529-29.852-9.19-43.604-1.728s-22.316 21.854-22.316 37.5v298.667c0 14.441 7.305 27.903 19.414 35.773l426.666 277.333c13.12 8.527 29.854 9.19 43.605 1.727zM128 574.179v-196.89l341.333 221.866v196.89l-341.333-221.867zM959.019 261.167c13.751 7.462 22.315 21.854 22.315 37.5v298.667c0 14.442-7.305 27.903-19.413 35.773l-426.667 277.333c-13.12 8.527-29.854 9.19-43.605 1.727s-22.315-21.854-22.315-37.501v-298.667c0-14.441 7.305-27.903 19.413-35.773l426.667-277.332c13.12-8.529 29.854-9.19 43.605-1.728zM554.667 599.155v196.89l341.333-221.867v-196.89l-341.333 221.866z" />
<glyph unicode="&#xe965;" glyph-name="coffee-expresso" data-tags="coffee-expresso" d="M307.703 516.924c-8.085-10.355-10.949-23.859-7.762-36.604l64-256c4.748-18.995 21.814-32.32 41.393-32.32h213.333c19.58 0 36.646 13.325 41.391 32.32l2.59 10.347h84.019c73.097 0 149.333 48.913 149.333 128s-76.237 128-149.333 128h-21.333c0 9.417-3.119 18.679-9.037 26.257-8.085 10.355-20.493 16.41-33.63 16.41h-341.333c-13.139 0-25.545-6.054-33.63-16.41zM588.173 288.61c-0.162-0.593-0.311-1.19-0.448-1.796l-2.372-9.481h-146.705l-42.668 170.667h232.039l-39.846-159.39zM683.981 320l21.333 85.333h41.353c44.723 0 64-27.494 64-42.667s-19.277-42.667-64-42.667h-62.686zM256 149.333c0-23.565 19.103-42.667 42.667-42.667h426.667c23.565 0 42.667 19.102 42.667 42.667s-19.102 42.667-42.667 42.667h-426.667c-23.564 0-42.667-19.102-42.667-42.667z" />
<glyph unicode="&#xe966;" glyph-name="coffee" data-tags="coffee" d="M558.592 653.056c10.556-7.767 17.408-20.278 17.408-34.39 0-23.564-19.102-42.667-42.667-42.667-16.986 0-39.326 5.223-53.461 25.997-12.297 18.071-11.187 38.111-9.553 49.431 3.149 21.801 14.362 47.636 22.554 66.515 0.448 1.024 0.883 2.028 1.306 3.010 6.157 14.216 10.85 25.385 13.897 33.99-10.556 7.767-17.408 20.278-17.408 34.39 0 23.564 19.102 42.667 42.667 42.667 16.986 0 39.326-5.223 53.461-25.997 12.297-18.071 11.187-38.111 9.553-49.431-3.149-21.801-14.362-47.636-22.554-66.515-0.448-1.024-0.883-2.028-1.306-3.010-6.157-14.216-10.85-25.385-13.897-33.99zM554.641 637.703c-0.013-0.012-0.017 0.195 0.030 0.652 0.009-0.413-0.013-0.641-0.030-0.652zM512.026 770.297c0.013 0.012 0.017-0.195-0.030-0.652-0.009 0.413 0.013 0.641 0.030 0.652zM387.926 653.056c10.557-7.767 17.408-20.278 17.408-34.39 0-23.564-19.103-42.667-42.667-42.667-16.987 0-39.326 5.223-53.461 25.997-12.296 18.071-11.186 38.111-9.552 49.431 3.147 21.801 14.36 47.636 22.554 66.515 0.445 1.024 0.88 2.028 1.306 3.010 6.156 14.216 10.851 25.385 13.894 33.99-10.557 7.767-17.408 20.278-17.408 34.39 0 23.564 19.102 42.667 42.667 42.667 16.987 0 39.326-5.223 53.461-25.997 12.297-18.071 11.187-38.111 9.552-49.431-3.147-21.801-14.36-47.636-22.554-66.515-0.445-1.024-0.88-2.028-1.306-3.010-6.156-14.216-10.851-25.385-13.894-33.99zM383.976 637.703c-0.013-0.012-0.018 0.195 0.026 0.652 0.009-0.413-0.012-0.641-0.026-0.652zM341.357 770.297c0.013 0.012 0.018-0.195-0.026-0.652-0.010 0.413 0.012 0.641 0.026 0.652zM170.667 490.667c0 23.565 19.103 42.667 42.667 42.667h512c23.565 0 42.667-19.102 42.667-42.667v-44.331c6.963 1.143 14.097 1.664 21.333 1.664 82.475 0 149.333-66.859 149.333-149.333s-66.859-149.333-149.333-149.333c-7.236 0-14.37 0.521-21.333 1.664v-86.997c0-23.565-19.102-42.667-42.667-42.667h-512c-23.564 0-42.667 19.102-42.667 42.667v426.667zM768 298.667c0-30.724 1.835-48.273 6.187-58.001 1.468-3.273 2.47-3.84 2.654-3.947 0.009-0.004-0.004 0.004 0 0 0.384-0.235 3.477-2.052 12.493-2.052 35.345 0 64 28.655 64 64s-28.655 64-64 64c-9.015 0-12.087-1.805-12.471-2.044-0.009 0 0.009 0.009 0 0-0.183-0.102-1.207-0.683-2.675-3.955-4.352-9.728-6.187-27.277-6.187-58.001zM682.667 448h-426.667v-341.333h426.667v341.333z" />
<glyph unicode="&#xe967;" glyph-name="colour-picker" data-tags="colour-picker" d="M530.487 807.142c37.943 62.767 119.582 82.911 182.37 44.989 62.81-37.932 82.974-119.597 45.039-182.404l-47.893-79.262 2.091-1.264c41.489-25.057 54.81-79.005 29.756-120.494-25.058-41.485-79.006-54.805-120.495-29.751l-2.078 1.259-211.791-350.677c-22.196-36.753-63.253-57.809-106.052-54.391-53.281 4.254-96.35 45.15-103.354 98.138l-5.705 43.166c-4.976 37.641 3.008 75.853 22.636 108.352l176.822 292.777-2.075 1.253c-41.489 25.057-54.809 79.003-29.752 120.492s79.004 54.809 120.493 29.752l1.877-1.135 48.077 79.152c0.013 0.017 0.021 0.033 0.034 0.050zM474.697 632.889c-0.034 0.020-0.064 0.040-0.098 0.060l-38.217 23.080c-1.148 0.692-2.637 0.324-3.332-0.823-0.691-1.147-0.324-2.639 0.823-3.332l38.229-23.088c0.124-0.073 0.247-0.147 0.371-0.221l154.398-93.249c0.119-0.073 0.243-0.148 0.363-0.222l38.238-23.095c1.148-0.691 2.637-0.324 3.332 0.823 0.691 1.148 0.324 2.641-0.823 3.332l-38.588 23.305c-0.017 0.009-0.030 0.017-0.043 0.025-0.009 0.005 0.009-0.005 0 0l-154.654 93.403zM636.958 634.58l-81.536 49.244 48.077 79.152c13.568 22.465 42.782 29.678 65.246 16.11 22.46-13.566 29.675-42.771 16.115-65.235 0 0.003-0.004-0.003 0 0l-47.902-79.27zM464.879 533.461l-176.823-292.774c-9.612-15.915-13.521-34.628-11.084-53.060l5.705-43.162c1.731-13.099 12.378-23.206 25.548-24.256 10.58-0.845 20.728 4.361 26.215 13.444l211.791 350.673-81.353 49.135z" />
<glyph unicode="&#xe968;" glyph-name="columns" data-tags="columns" d="M85.333 704c0 94.257 76.41 170.667 170.667 170.667h512c94.255 0 170.667-76.41 170.667-170.667v-512c0-94.255-76.412-170.667-170.667-170.667h-512c-94.257 0-170.667 76.412-170.667 170.667v512zM554.667 106.667h213.333c47.13 0 85.333 38.204 85.333 85.333v512c0 47.128-38.204 85.333-85.333 85.333h-213.333v-682.667zM469.333 789.333h-213.333c-47.128 0-85.333-38.205-85.333-85.333v-512c0-47.13 38.205-85.333 85.333-85.333h213.333v682.667z" />
<glyph unicode="&#xe969;" glyph-name="command" data-tags="command" d="M277.333 746.667c-35.346 0-64-28.654-64-64s28.654-64 64-64c6.176 0 11.999-0.068 17.465-0.173 1.274 0.115 2.565 0.173 3.869 0.173h41.446c1.169 13.22 1.221 32.723 1.221 64 0 35.346-28.654 64-64 64zM341.333 532.006c-0.807-0.004-1.585-0.004-2.333-0.004-7.204 0-15.384 0.273-23.709 0.55-1.378 0.047-2.76 0.094-4.142 0.137-10.073 0.329-21.188 0.644-33.816 0.644-82.475 0-149.333 66.859-149.333 149.333s66.859 149.333 149.333 149.333c82.475 0 149.333-66.859 149.333-149.333v-2.614c0-6.077 0-11.936-0.015-17.569 0.010-0.382 0.015-0.765 0.015-1.15v-42.667h170.667v42.667c0 0.507 0.009 1.013 0.026 1.516-0.026 5.662-0.026 11.511-0.026 17.519v2.298c0 82.475 66.859 149.333 149.333 149.333s149.333-66.859 149.333-149.333c0-82.475-66.859-149.333-149.333-149.333h-2.3c-6.007 0-11.857 0-17.519 0.026-0.503-0.017-1.007-0.026-1.515-0.026h-42.667v-170.667h42.667c3.669 0 7.232-0.465 10.633-1.335 2.765 0.004 5.564 0.004 8.401 0.004h2.3c82.475 0 149.333-66.863 149.333-149.333 0-82.475-66.859-149.333-149.333-149.333s-149.333 66.859-149.333 149.333v2.295c0 6.421 0 12.663 0.034 18.688-0.021 0.559-0.034 1.118-0.034 1.681v42.667h-170.667v-42.667c0-0.431-0.006-0.858-0.019-1.28 0.019-6.003 0.019-12.262 0.019-18.773v-2.611c0-82.475-66.859-149.333-149.333-149.333s-149.333 66.859-149.333 149.333c0 82.47 66.859 149.333 149.333 149.333 3.805 0 7.473 0.026 11.017 0.077 3.304 0.819 6.759 1.254 10.317 1.254h42.667v169.34zM426.667 533.333v-170.667h170.667v170.667h-170.667zM339.988 277.329c-0.32 0.004-0.65 0.004-0.989 0.004-5.658 0-12.179-0.218-20.653-0.499-1.415-0.047-2.884-0.094-4.413-0.145-10.344-0.337-22.562-0.687-36.601-0.687-35.346 0-64-28.655-64-64 0-35.349 28.654-64 64-64s64 28.651 64 64c0 32.341-0.056 52.096-1.345 65.327zM684.766 273.903c-0.23-1.297-0.469-2.927-0.695-4.949-1.34-12.079-1.404-29.244-1.404-56.951 0-35.349 28.655-64 64-64s64 28.651 64 64c0 35.345-28.655 64-64 64-27.708 0-44.873-0.064-56.956-1.408-2.018-0.226-3.648-0.465-4.945-0.691zM684.766 620.764c1.297-0.227 2.927-0.467 4.945-0.692 12.083-1.343 29.248-1.406 56.956-1.406 35.345 0 64 28.654 64 64s-28.655 64-64 64c-35.345 0-64-28.654-64-64 0-27.709 0.064-44.873 1.404-56.955 0.226-2.020 0.465-3.651 0.695-4.948z" />
<glyph unicode="&#xe96a;" glyph-name="compass" data-tags="compass" d="M734.263 670.074c12.843-12.924 16.064-32.578 8.013-48.924l-128-259.929c-4.198-8.525-11.119-15.403-19.669-19.546l-256-124.070c-16.396-7.949-36.030-4.604-48.873 8.32s-16.062 32.576-8.013 48.926l128.001 259.927c4.198 8.524 11.119 15.402 19.671 19.546l256 124.071c16.393 7.947 36.028 4.604 48.87-8.32zM479.799 483.925l-66.664-135.373 131.061 63.518 66.667 135.376-131.063-63.521zM85.333 448c0 235.642 191.025 426.667 426.667 426.667 235.639 0 426.667-191.025 426.667-426.667 0-235.639-191.027-426.667-426.667-426.667-235.642 0-426.667 191.027-426.667 426.667zM512 789.333c-188.513 0-341.333-152.82-341.333-341.333s152.82-341.333 341.333-341.333c188.514 0 341.333 152.819 341.333 341.333s-152.819 341.333-341.333 341.333z" />
<glyph unicode="&#xe96b;" glyph-name="copy" data-tags="copy" d="M85.333 741.647c0 73.465 59.555 133.020 133.020 133.020h361.41c73.468 0 133.022-59.555 133.022-133.020v-22.588c0-23.564-19.102-42.667-42.667-42.667s-42.667 19.103-42.667 42.667v22.588c0 26.336-21.35 47.686-47.689 47.686h-361.41c-26.336 0-47.686-21.35-47.686-47.686v-361.41c0-26.338 21.35-47.689 47.686-47.689 23.564 0 42.667-19.102 42.667-42.667s-19.103-42.667-42.667-42.667c-73.465 0-133.020 59.554-133.020 133.022v361.41zM311.216 520.785c0 70.691 57.307 127.999 127.999 127.999h371.452c70.694 0 128-57.307 128-127.999v-371.452c0-70.694-57.306-128-128-128h-371.452c-70.691 0-127.999 57.306-127.999 128v371.452zM439.215 563.45c-23.563 0-42.665-19.102-42.665-42.665v-371.452c0-23.565 19.102-42.667 42.665-42.667h371.452c23.565 0 42.667 19.102 42.667 42.667v371.452c0 23.563-19.102 42.665-42.667 42.665h-371.452z" />
<glyph unicode="&#xe96c;" glyph-name="corner-down-left" data-tags="corner-down-left" d="M529.067 320c108.395 0 196.267 87.872 196.267 196.267v273.067c0 23.564 19.102 42.667 42.667 42.667s42.667-19.102 42.667-42.667v-273.067c0-155.524-126.076-281.6-281.6-281.6h-273.067c-23.564 0-42.667 19.102-42.667 42.667s19.102 42.667 42.667 42.667h273.067zM201.859 245.619c17.515-15.761 44.493-14.345 60.256 3.17l153.599 170.667c15.765 17.519 14.344 44.493-3.172 60.258s-44.493 14.345-60.256-3.17l-153.599-170.667c-15.764-17.515-14.344-44.493 3.171-60.258zM201.859 309.047c17.515 15.761 44.493 14.345 60.256-3.17l153.599-170.667c15.765-17.519 14.344-44.493-3.172-60.258s-44.493-14.345-60.256 3.17l-153.599 170.667c-15.764 17.515-14.344 44.493 3.171 60.258z" />
<glyph unicode="&#xe96d;" glyph-name="corner-down-right" data-tags="corner-down-right" d="M256 832c23.564 0 42.667-19.103 42.667-42.667v-273.067c0-108.395 87.872-196.267 196.267-196.267h202.863l-89.51 99.456c-15.765 17.515-14.345 44.493 3.17 60.258s44.493 14.345 60.258-3.17l153.6-170.667c14.601-16.226 14.601-40.862 0-57.088l-153.6-170.667c-15.765-17.515-42.743-18.935-60.258-3.17s-18.935 42.739-3.17 60.258l89.51 99.456h-202.863c-155.523 0-281.6 126.076-281.6 281.6v273.067c0 23.564 19.103 42.667 42.667 42.667z" />
<glyph unicode="&#xe96e;" glyph-name="corner-left-down" data-tags="corner-left-down" d="M298.667 465.067c0 155.523 126.077 281.6 281.6 281.6h273.067c23.565 0 42.667-19.103 42.667-42.667s-19.102-42.667-42.667-42.667h-273.067c-108.395 0-196.266-87.872-196.266-196.267v-202.867l99.456 89.51c17.519 15.761 44.493 14.345 60.258-3.174 15.765-17.515 14.345-44.493-3.17-60.254l-170.668-153.6c-16.226-14.605-40.858-14.605-57.085 0l-170.667 153.6c-17.515 15.761-18.935 42.739-3.172 60.254 15.764 17.519 42.741 18.935 60.256 3.174l99.458-89.51v202.867z" />
<glyph unicode="&#xe96f;" glyph-name="corner-left-up" data-tags="corner-left-up" d="M312.791 761.318c16.226 14.604 40.858 14.604 57.085 0l170.668-153.599c17.515-15.764 18.935-42.741 3.17-60.256-15.765-17.517-42.739-18.934-60.258-3.171l-99.456 89.511v-202.869c0-108.395 87.872-196.267 196.266-196.267h273.067c23.565 0 42.667-19.102 42.667-42.667s-19.102-42.667-42.667-42.667h-273.067c-155.523 0-281.6 126.076-281.6 281.6v202.869l-99.458-89.511c-17.515-15.762-44.493-14.346-60.256 3.171-15.764 17.515-14.343 44.493 3.172 60.256l170.667 153.599z" />
<glyph unicode="&#xe970;" glyph-name="corner-right-down" data-tags="corner-right-down" d="M170.667 746.667h273.067c155.524 0 281.6-126.077 281.6-281.6v-202.867l99.456 89.51c17.519 15.761 44.493 14.345 60.258-3.174 15.765-17.515 14.345-44.493-3.17-60.254l-170.667-153.6c-16.226-14.605-40.862-14.605-57.088 0l-170.667 153.6c-17.515 15.761-18.935 42.739-3.17 60.254 15.765 17.519 42.743 18.935 60.258 3.174l99.456-89.51v202.867c0 108.395-87.872 196.267-196.267 196.267h-273.067c-23.564 0-42.667 19.103-42.667 42.667s19.103 42.667 42.667 42.667z" />
<glyph unicode="&#xe971;" glyph-name="corner-right-up" data-tags="corner-right-up" d="M654.123 761.318c16.226 14.604 40.862 14.604 57.088 0l170.667-153.599c17.515-15.764 18.935-42.741 3.17-60.256-15.765-17.517-42.743-18.934-60.258-3.171l-99.456 89.511v-202.869c0-155.524-126.076-281.6-281.6-281.6h-273.067c-23.564 0-42.667 19.102-42.667 42.667s19.103 42.667 42.667 42.667h273.067c108.395 0 196.267 87.872 196.267 196.267v202.869l-99.456-89.511c-17.515-15.762-44.493-14.346-60.258 3.171-15.765 17.515-14.345 44.493 3.17 60.256l170.667 153.599z" />
<glyph unicode="&#xe972;" glyph-name="corner-up-left" data-tags="corner-up-left" d="M438.14 821.047c17.515-15.764 18.935-42.741 3.174-60.256l-89.513-99.458h202.865c155.524 0 281.6-126.077 281.6-281.6v-273.067c0-23.565-19.102-42.667-42.667-42.667s-42.667 19.102-42.667 42.667v273.067c0 108.395-87.872 196.266-196.267 196.266h-202.865l89.513-99.456c15.761-17.519 14.34-44.493-3.174-60.258s-44.491-14.345-60.255 3.17l-153.599 170.668c-14.604 16.226-14.604 40.858 0 57.085l153.599 170.667c15.764 17.515 42.741 18.935 60.255 3.172z" />
<glyph unicode="&#xe973;" glyph-name="corner-up-right" data-tags="corner-up-right" d="M611.456 821.047c17.515 15.764 44.493 14.343 60.258-3.172l153.6-170.667c14.601-16.226 14.601-40.858 0-57.085l-153.6-170.668c-15.765-17.515-42.743-18.935-60.258-3.17s-18.935 42.739-3.17 60.258l89.51 99.456h-202.863c-108.395 0-196.267-87.872-196.267-196.266v-273.067c0-23.565-19.103-42.667-42.667-42.667s-42.667 19.102-42.667 42.667v273.067c0 155.523 126.077 281.6 281.6 281.6h202.863l-89.51 99.458c-15.765 17.515-14.345 44.493 3.17 60.256z" />
</font>
</defs>
</svg>
